<svg width="30" height="38" viewBox="0 0 30 38" version="1.1" xmlns="http://www.w3.org/2000/svg" xmlns:xlink="http://www.w3.org/1999/xlink">
<title>Group 3</title>
<desc>Created using Figma</desc>
<g id="Canvas" transform="translate(-3430 1271)">
<g id="Group 3">
<g id="noun_1207214_cc">
<g id="Vector">
<use xlink:href="#path0_fill" transform="translate(3430 -1259.41)" fill="#666666"/>
</g>
<g id="Vector">
<use xlink:href="#path1_fill" transform="translate(3440.13 -1271)" fill="#666666"/>
</g>
</g>
</g>
</g>
<defs>
<path id="path0_fill" d="M 29.3241 7.6696L 22.4262 0.140325C 22.3859 0.0967732 22.3371 0.0618773 22.2828 0.0377558C 22.2285 0.0136344 22.1699 0.000790365 22.1105 8.02943e-07L 7.88513 8.02943e-07C 7.82574 0.000790365 7.76714 0.0136344 7.71286 0.0377558C 7.65859 0.0618773 7.60978 0.0967732 7.5694 0.140325L 0.680353 7.66522C 0.248876 8.09088 0.0041645 8.67051 5.26482e-05 9.2766C -0.00405921 9.88269 0.232765 10.4656 0.658427 10.8971C 1.08409 11.3285 1.66372 11.5733 2.26981 11.5774C 2.8759 11.5815 3.4588 11.3447 3.89027 10.919L 8.749 7.2004L 8.39819 11.796L 2.8203 17.2862C 2.54322 17.6137 2.39898 18.0332 2.41603 18.4618C 2.43307 18.8904 2.61018 19.2971 2.91239 19.6016L 8.56921 25.1795C 8.82326 25.4485 9.1287 25.6639 9.46746 25.8129C 9.80623 25.9619 10.1714 26.0413 10.5415 26.0467C 10.9115 26.052 11.2788 25.983 11.6217 25.8439C 11.9646 25.7047 12.2761 25.4982 12.5378 25.2365C 12.7995 24.9748 13.006 24.6633 13.1452 24.3204C 13.2843 23.9775 13.3533 23.6102 13.348 23.2402C 13.3426 22.8701 13.2632 22.5049 13.1142 22.1662C 12.9652 21.8274 12.7498 21.522 12.4808 21.2679L 10.1742 18.9657L 11.7835 17.7642L 18.2121 17.7642L 19.8215 18.9657L 17.5149 21.2723C 17.0339 21.7983 16.7745 22.4896 16.7906 23.2021C 16.8067 23.9147 17.0972 24.5935 17.6014 25.0972C 18.1057 25.6009 18.7849 25.8906 19.4974 25.9059C 20.21 25.9212 20.901 25.661 21.4264 25.1795L 27.0876 19.6103C 27.387 19.301 27.5595 18.8906 27.5708 18.4602C 27.5822 18.0299 27.4317 17.6109 27.149 17.2862L 21.5975 11.7872L 21.2466 7.2004L 26.1054 10.9278C 26.5357 11.3546 27.1179 11.593 27.724 11.5905C 28.3301 11.5881 28.9104 11.3449 29.3372 10.9146C 29.764 10.4843 30.0024 9.90205 30 9.29596C 29.9975 8.68987 29.7544 8.10958 29.3241 7.68276L 29.3241 7.6696ZM 9.19629 19.2288L 11.8624 21.895C 12.0405 22.07 12.182 22.2786 12.279 22.5087C 12.3759 22.7388 12.4263 22.9858 12.4273 23.2354C 12.4282 23.4851 12.3797 23.7325 12.2845 23.9633C 12.1893 24.1941 12.0493 24.4037 11.8726 24.5801C 11.6959 24.7565 11.486 24.8961 11.2551 24.991C 11.0241 25.0858 10.7767 25.1339 10.527 25.1325C 10.2774 25.1312 10.0305 25.0804 9.80054 24.9831C 9.57063 24.8857 9.36228 24.7438 9.18752 24.5655L 3.53069 18.9964C 3.38718 18.8538 3.30082 18.6635 3.28789 18.4616C 3.27497 18.2596 3.33637 18.0599 3.46053 17.9001L 7.73165 13.6772L 11.1784 17.124L 9.24452 18.5667C 9.19397 18.6043 9.1521 18.6523 9.12179 18.7075C 9.09147 18.7628 9.0734 18.8239 9.06883 18.8867C 9.06425 18.9495 9.07326 19.0126 9.09526 19.0717C 9.11725 19.1307 9.15171 19.1843 9.19629 19.2288ZM 26.4693 18.9964L 20.8081 24.5655C 20.6356 24.753 20.4269 24.9037 20.1947 25.0085C 19.9624 25.1133 19.7114 25.1701 19.4566 25.1754C 19.2019 25.1807 18.9487 25.1344 18.7122 25.0393C 18.4758 24.9443 18.2611 24.8024 18.0809 24.6222C 17.9007 24.442 17.7589 24.2273 17.6638 23.9909C 17.5687 23.7545 17.5225 23.5013 17.5278 23.2465C 17.5331 22.9918 17.5898 22.7407 17.6946 22.5084C 17.7994 22.2762 17.9501 22.0675 18.1376 21.895L 20.8037 19.2288C 20.8483 19.1843 20.8828 19.1307 20.9048 19.0717C 20.9268 19.0126 20.9358 18.9495 20.9312 18.8867C 20.9266 18.8239 20.9086 18.7628 20.8782 18.7075C 20.8479 18.6523 20.8061 18.6043 20.7555 18.5667L 18.8217 17.124L 22.2684 13.6772L 26.5132 17.8738C 26.646 18.0324 26.715 18.2347 26.7069 18.4414C 26.6988 18.6481 26.6141 18.8443 26.4693 18.992L 26.4693 18.9964ZM 21.6457 13.0633L 17.8219 16.8872L 12.1826 16.8872L 8.35873 13.0633L 9.1349 12.2959C 9.20888 12.222 9.25399 12.124 9.26206 12.0197L 9.45062 9.56398L 20.5494 9.56398L 20.738 12.0197C 20.746 12.124 20.7911 12.222 20.8651 12.2959L 21.6457 13.0633ZM 28.697 10.27C 28.5663 10.4007 28.4111 10.5044 28.2403 10.5752C 28.0695 10.6459 27.8864 10.6824 27.7016 10.6824C 27.5167 10.6824 27.3336 10.6459 27.1628 10.5752C 26.992 10.5044 26.8369 10.4007 26.7061 10.27L 26.6623 10.2305L 21.0011 5.88485C 20.9339 5.8327 20.853 5.80121 20.7682 5.79422C 20.6835 5.78722 20.5985 5.80502 20.5237 5.84545C 20.4489 5.88588 20.3874 5.9472 20.3468 6.02193C 20.3062 6.09666 20.2883 6.18159 20.2951 6.26636L 20.4792 8.6738L 9.5164 8.6738L 9.70058 6.26636C 9.70739 6.18159 9.6894 6.09666 9.64881 6.02193C 9.60821 5.9472 9.54676 5.88588 9.47194 5.84545C 9.39712 5.80502 9.31216 5.78722 9.2274 5.79422C 9.14264 5.80121 9.06175 5.8327 8.99457 5.88485L 3.33336 10.2393L 3.28951 10.2788C 3.02172 10.5355 2.66507 10.6789 2.29408 10.6789C 1.92309 10.6789 1.56645 10.5355 1.29866 10.2788C 1.16756 10.1483 1.06363 9.99319 0.992877 9.82233C 0.922124 9.65146 0.885952 9.46827 0.886454 9.28333C 0.888363 9.09444 0.928157 8.90784 1.00348 8.7346C 1.0788 8.56135 1.18812 8.40499 1.32497 8.27475L 8.05177 0.912108L 8.11316 0.912108L 8.15263 0.912108L 21.843 0.912108L 21.8825 0.912108L 21.9439 0.912108L 28.6838 8.27037C 28.8146 8.40108 28.9183 8.55627 28.989 8.72707C 29.0598 8.89786 29.0962 9.08092 29.0962 9.26579C 29.0962 9.45067 29.0598 9.63373 28.989 9.80453C 28.9183 9.97532 28.8146 10.1305 28.6838 10.2612L 28.697 10.27Z"/>
<path id="path1_fill" d="M 9.74378 4.87189C 9.74378 3.90832 9.45804 2.96639 8.92271 2.16521C 8.38739 1.36404 7.6265 0.739594 6.73628 0.370852C 5.84606 0.00211091 4.86648 -0.0943688 3.92143 0.093614C 2.97638 0.281597 2.10829 0.745599 1.42694 1.42694C 0.745599 2.10829 0.281596 2.97638 0.0936133 3.92143C -0.0943695 4.86648 0.00211104 5.84606 0.370853 6.73628C 0.739594 7.6265 1.36404 8.38738 2.16521 8.92271C 2.96639 9.45804 3.90832 9.74378 4.87189 9.74378C 6.16328 9.74146 7.40112 9.22743 8.31427 8.31427C 9.22743 7.40112 9.74146 6.16328 9.74378 4.87189ZM 0.872645 4.87189C 0.872645 4.08197 1.10683 3.30978 1.5456 2.65292C 1.98436 1.99606 2.60802 1.48403 3.33773 1.18154C 4.06744 0.879052 4.87044 0.799684 5.64525 0.953472C 6.42006 1.10726 7.13188 1.4873 7.69074 2.04555C 8.24961 2.6038 8.63043 3.31521 8.78507 4.08985C 8.9397 4.86448 8.86122 5.66758 8.55953 6.39762C 8.25784 7.12766 7.74649 7.75187 7.09012 8.19136C 6.43374 8.63085 5.66181 8.86588 4.87189 8.86675C 3.8131 8.86443 2.79834 8.4428 2.04966 7.69412C 1.30098 6.94544 0.879346 5.93068 0.877029 4.87189L 0.872645 4.87189Z"/>
</defs>
</svg>
