<svg width="25" height="40" viewBox="0 0 25 40" version="1.1" xmlns="http://www.w3.org/2000/svg" xmlns:xlink="http://www.w3.org/1999/xlink">
<title>noun_975059_cc</title>
<desc>Created using Figma</desc>
<g id="Canvas" transform="translate(-1272 788)">
<g id="noun_975059_cc">
<g id="Vector">
<use xlink:href="#path0_fill" transform="translate(1280.91 -776.448)" fill="#666666"/>
</g>
<g id="Vector">
<use xlink:href="#path1_fill" transform="translate(1280.33 -779.729)" fill="#666666"/>
</g>
<g id="Vector">
<use xlink:href="#path2_fill" transform="translate(1285.99 -779.668)" fill="#666666"/>
</g>
<g id="Vector">
<use xlink:href="#path3_fill" transform="translate(1275.23 -784.773)" fill="#666666"/>
</g>
<g id="Vector">
<use xlink:href="#path4_fill" transform="translate(1272 -788)" fill="#666666"/>
</g>
<g id="Vector">
<use xlink:href="#path5_fill" transform="translate(1283.13 -774.221)" fill="#666666"/>
</g>
</g>
</g>
<defs>
<path id="path0_fill" fill-rule="evenodd" d="M 3.12587 -2.22222e-07C 1.40578 -6.66667e-07 1.66667e-07 1.40665 1.66667e-07 3.12674C 1.66667e-07 4.84682 1.40578 6.2526 3.12587 6.2526C 4.84595 6.2526 6.25174 4.84682 6.25174 3.12674C 6.25174 1.40665 4.84595 -6.66667e-07 3.12587 -2.22222e-07ZM 3.12587 1.06684C 4.26948 1.06684 5.1849 1.98312 5.1849 3.12674C 5.1849 4.27035 4.26948 5.18576 3.12587 5.18576C 1.98225 5.18576 1.06684 4.27035 1.06684 3.12674C 1.06684 1.98312 1.98225 1.06684 3.12587 1.06684Z"/>
<path id="path1_fill" d="M 0.89976 2.49891e-07C 0.40716 2.49891e-07 -2.19184e-07 0.407159 -2.19184e-07 0.899759C -2.19184e-07 1.39236 0.40716 1.79952 0.89976 1.79952C 1.39236 1.79952 1.79952 1.39236 1.79952 0.899759C 1.79952 0.407159 1.39236 2.49891e-07 0.89976 2.49891e-07Z"/>
<path id="path2_fill" d="M 0.89976 -7.82878e-08C 0.40716 -7.82878e-08 -6.61892e-09 0.407159 -6.61892e-09 0.899759C -6.61892e-09 1.39236 0.40716 1.79952 0.89976 1.79952C 1.39236 1.79952 1.79952 1.39236 1.79952 0.899759C 1.79952 0.407159 1.39236 -7.82878e-08 0.89976 -7.82878e-08Z"/>
<path id="path3_fill" d="M -4.02561e-07 8.802C -4.02561e-07 13.6604 3.94704 17.604 8.802 17.604C 13.6604 17.604 17.604 13.657 17.604 8.802C 17.604 3.94357 13.657 1.62191e-07 8.802 1.62191e-07C 3.94357 1.62191e-07 -4.02561e-07 3.94704 -4.02561e-07 8.802ZM 16.536 8.802C 16.536 13.0796 13.0789 16.536 8.802 16.536C 4.52437 16.536 1.06802 13.0789 1.06802 8.802C 1.06802 4.52437 4.52506 1.06802 8.802 1.06802C 13.0796 1.06802 16.536 4.52506 16.536 8.802Z"/>
<path id="path4_fill" d="M 12.0293 3.15797e-15C 5.38572 3.15797e-15 6.78168e-09 5.38572 6.78168e-09 12.0293L 6.78168e-09 27.9707C 6.78168e-09 34.6143 5.38572 40 12.0293 40C 18.673 40 24.0587 34.6143 24.0587 27.9707L 24.0587 12.0293C 24.0587 5.38572 18.673 3.15797e-15 12.0293 3.15797e-15ZM 12.0293 1.0758C 18.0788 1.0758 22.9829 5.97986 22.9829 12.0293L 22.9829 18.2117L 12.0293 29.1656L 1.0758 18.2121L 1.0758 12.0293C 1.0758 5.97986 5.97986 1.0758 12.0293 1.0758ZM 22.9829 19.7333L 22.9829 27.9707C 22.9829 31.2997 21.4957 34.2797 19.1519 36.2886L 12.79 29.9263L 22.9829 19.7333ZM 1.0758 19.7342L 18.295 36.9531C 16.5192 38.1941 14.3602 38.9243 12.0293 38.9243C 5.97986 38.9243 1.0758 34.0203 1.0758 27.9708L 1.0758 19.7342Z"/>
<path id="path5_fill" d="M 0.89976 3.852e-08C 0.40716 3.852e-08 -5.68576e-08 0.407158 -5.68576e-08 0.899758C -5.68576e-08 1.39236 0.40716 1.79952 0.89976 1.79952C 1.39236 1.79952 1.79952 1.39236 1.79952 0.899758C 1.79952 0.407158 1.39236 3.852e-08 0.89976 3.852e-08Z"/>
</defs>
</svg>
