<svg width="100" height="88" viewBox="0 0 100 88" version="1.1" xmlns="http://www.w3.org/2000/svg" xmlns:xlink="http://www.w3.org/1999/xlink">
<title>noun_1094114_cc</title>
<desc>Created using Figma</desc>
<g id="Canvas" transform="translate(-3950 1318)">
<g id="noun_1094114_cc">
<g id="Group">
<g id="Vector">
<use xlink:href="#path0_fill" transform="translate(3965.85 -1296.66)" fill="#666666"/>
</g>
<g id="Vector">
<use xlink:href="#path1_fill" transform="translate(3981.71 -1280.8)" fill="#666666"/>
</g>
<g id="Vector">
<use xlink:href="#path2_fill" transform="translate(4026.83 -1284.46)" fill="#666666"/>
</g>
<g id="Vector">
<use xlink:href="#path3_fill" transform="translate(3950 -1318)" fill="#666666"/>
</g>
</g>
</g>
</g>
<defs>
<path id="path0_fill" d="M 26.8293 -9.30414e-07C 12.0732 -9.30414e-07 0 12.0732 0 26.8293C 0 41.5854 12.0732 53.6585 26.8293 53.6585C 41.5854 53.6585 53.6585 41.5854 53.6585 26.8293C 53.6585 12.0732 41.5854 -9.30414e-07 26.8293 -9.30414e-07ZM 26.8293 51.2195C 13.4146 51.2195 2.43902 40.2439 2.43902 26.8293C 2.43902 13.4146 13.4146 2.43902 26.8293 2.43902C 40.2439 2.43902 51.2195 13.4146 51.2195 26.8293C 51.2195 40.2439 40.2439 51.2195 26.8293 51.2195Z"/>
<path id="path1_fill" d="M 10.9756 -9.30414e-07C 4.87805 -9.30414e-07 0 4.87805 0 10.9756C 0 17.0732 4.87805 21.9512 10.9756 21.9512C 17.0732 21.9512 21.9512 17.0732 21.9512 10.9756C 21.9512 4.87805 17.0732 -9.30414e-07 10.9756 -9.30414e-07ZM 10.9756 19.5122C 6.21951 19.5122 2.43902 15.7317 2.43902 10.9756C 2.43902 6.21951 6.21951 2.43902 10.9756 2.43902C 15.7317 2.43902 19.5122 6.21951 19.5122 10.9756C 19.5122 15.7317 15.7317 19.5122 10.9756 19.5122Z"/>
<path id="path2_fill" d="M 8.53659 -9.30414e-07L 1.21951 -9.30414e-07C 0.487805 -9.30414e-07 0 0.487804 0 1.21951C 0 1.95122 0.487805 2.43902 1.21951 2.43902L 8.53659 2.43902C 9.26829 2.43902 9.7561 1.95122 9.7561 1.21951C 9.7561 0.487804 9.26829 -9.30414e-07 8.53659 -9.30414e-07Z"/>
<path id="path3_fill" d="M 84.1463 14.0244L 62.6829 14.0244L 61.0976 9.39024C 59.7561 3.90244 54.8781 2.32603e-07 49.2683 2.32603e-07L 35 2.32603e-07C 29.2683 2.32603e-07 24.3902 3.90244 23.1707 9.39024L 21.5854 14.0244L 15.8537 14.0244C 7.07317 14.0244 0 21.0976 0 29.878L 0 71.3415C 0 80.122 7.07317 87.1951 15.8537 87.1951L 84.1463 87.1951C 92.9268 87.1951 100 80.122 100 71.3415L 100 29.878C 100 21.0976 92.9268 14.0244 84.1463 14.0244ZM 97.561 71.3415C 97.561 78.7805 91.5854 84.7561 84.1463 84.7561L 15.8537 84.7561C 8.41463 84.7561 2.43902 78.7805 2.43902 71.3415L 2.43902 29.878C 2.43902 22.439 8.41463 16.4634 15.8537 16.4634L 22.561 16.4634C 23.2927 16.4634 23.7805 15.9756 23.7805 15.2439L 23.7805 14.878L 25.3659 10.122L 25.3659 10C 26.3415 5.4878 30.2439 2.43902 34.878 2.43902L 49.1463 2.43902C 53.6585 2.43902 57.6829 5.4878 58.6585 10L 58.6585 10.122L 60.2439 14.878L 60.2439 15.2439C 60.2439 15.9756 60.7317 16.4634 61.4634 16.4634L 84.1463 16.4634C 91.5854 16.4634 97.561 22.439 97.561 29.878L 97.561 71.3415Z"/>
</defs>
</svg>
