<svg width="103" height="89" viewBox="0 0 103 89" version="1.1" xmlns="http://www.w3.org/2000/svg" xmlns:xlink="http://www.w3.org/1999/xlink">
<title>camera-20</title>
<desc>Created using Figma</desc>
<g id="Canvas" transform="translate(-3239 -1642)">
<g id="camera-20">
<g id="Group">
<g id="Vector">
<use xlink:href="#path0_stroke" transform="translate(3251.37 1645.27)" fill="#444444"/>
</g>
<g id="Vector">
<use xlink:href="#path1_stroke" transform="translate(3240.01 1643)" fill="#444444"/>
</g>
<g id="Vector">
<use xlink:href="#path2_stroke" transform="translate(3271.82 1670.27)" fill="#444444"/>
</g>
<g id="Vector">
<use xlink:href="#path3_stroke" transform="translate(3255.92 1672.55)" fill="#444444"/>
</g>
<g id="Vector">
<use xlink:href="#path4_fill" transform="translate(3255.92 1672.55)" fill="#444444"/>
</g>
</g>
</g>
</g>
<defs>
<path id="path0_stroke" d="M 0 -1L -1 -1L -1 1L 0 1L 0 -1ZM 11.3636 1L 12.3636 1L 12.3636 -1L 11.3636 -1L 11.3636 1ZM 0 1L 11.3636 1L 11.3636 -1L 0 -1L 0 1Z"/>
<path id="path1_stroke" d="M 75 13.6364L 74.1679 14.191L 74.4647 14.6364L 75 14.6364L 75 13.6364ZM 65.9114 0L 66.7435 -0.554604L 66.4466 -1L 65.9114 -1L 65.9114 0ZM 43.1818 0L 43.1818 -1L 42.6466 -1L 42.3498 -0.5547L 43.1818 0ZM 34.0909 13.6364L 34.0909 14.6364L 34.6261 14.6364L 34.923 14.1911L 34.0909 13.6364ZM 6.81818 87.3636L 93.1818 87.3636L 93.1818 85.3636L 6.81818 85.3636L 6.81818 87.3636ZM 93.1818 87.3636C 97.5 87.3636 101 83.8636 101 79.5455L 99 79.5455C 99 82.7591 96.3954 85.3636 93.1818 85.3636L 93.1818 87.3636ZM 101 79.5455L 101 20.4545L 99 20.4545L 99 79.5455L 101 79.5455ZM 101 20.4545C 101 16.1364 97.5 12.6364 93.1818 12.6364L 93.1818 14.6364C 96.3954 14.6364 99 17.2409 99 20.4545L 101 20.4545ZM 93.1818 12.6364L 75 12.6364L 75 14.6364L 93.1818 14.6364L 93.1818 12.6364ZM 75.8321 13.0818L 66.7435 -0.554604L 65.0792 0.554604L 74.1679 14.191L 75.8321 13.0818ZM 65.9114 -1L 43.1818 -1L 43.1818 1L 65.9114 1L 65.9114 -1ZM 42.3498 -0.5547L 33.2589 13.0817L 34.923 14.1911L 44.0139 0.5547L 42.3498 -0.5547ZM 34.0909 12.6364L 6.81818 12.6364L 6.81818 14.6364L 34.0909 14.6364L 34.0909 12.6364ZM 6.81818 12.6364C 2.49999 12.6364 -1 16.1364 -1 20.4545L 1 20.4545C 1 17.2409 3.60456 14.6364 6.81818 14.6364L 6.81818 12.6364ZM -1 20.4545L -1 79.5455L 1 79.5455L 1 20.4545L -1 20.4545ZM -1 79.5455C -1 83.8636 2.49999 87.3636 6.81818 87.3636L 6.81818 85.3636C 3.60456 85.3636 1 82.7591 1 79.5455L -1 79.5455Z"/>
<path id="path2_stroke" d="M 44.4545 22.7273C 44.4545 34.7269 34.7269 44.4545 22.7273 44.4545L 22.7273 46.4545C 35.8315 46.4545 46.4545 35.8315 46.4545 22.7273L 44.4545 22.7273ZM 22.7273 44.4545C 10.7276 44.4545 1 34.7269 1 22.7273L -1 22.7273C -1 35.8315 9.62306 46.4545 22.7273 46.4545L 22.7273 44.4545ZM 1 22.7273C 1 10.7276 10.7276 1 22.7273 1L 22.7273 -1C 9.62306 -1 -1 9.62306 -1 22.7273L 1 22.7273ZM 22.7273 1C 34.7269 1 44.4545 10.7276 44.4545 22.7273L 46.4545 22.7273C 46.4545 9.62306 35.8315 -1 22.7273 -1L 22.7273 1Z"/>
<path id="path3_stroke" d="M 3.54545 2.27273C 3.54545 2.97564 2.97564 3.54545 2.27273 3.54545L 2.27273 5.54545C 4.0802 5.54545 5.54545 4.0802 5.54545 2.27273L 3.54545 2.27273ZM 2.27273 3.54545C 1.56982 3.54545 1 2.97564 1 2.27273L -1 2.27273C -1 4.0802 0.46525 5.54545 2.27273 5.54545L 2.27273 3.54545ZM 1 2.27273C 1 1.56982 1.56982 1 2.27273 1L 2.27273 -1C 0.46525 -1 -1 0.46525 -1 2.27273L 1 2.27273ZM 2.27273 1C 2.97564 1 3.54545 1.56982 3.54545 2.27273L 5.54545 2.27273C 5.54545 0.46525 4.0802 -1 2.27273 -1L 2.27273 1Z"/>
<path id="path4_fill" d="M 2.27273 4.54545C 3.52792 4.54545 4.54545 3.52792 4.54545 2.27273C 4.54545 1.01753 3.52792 0 2.27273 0C 1.01753 0 0 1.01753 0 2.27273C 0 3.52792 1.01753 4.54545 2.27273 4.54545Z"/>
</defs>
</svg>
