<?xml version="1.0" encoding="UTF-8"?>
<svg width="36px" height="40px" viewBox="0 0 36 40" version="1.1" xmlns="http://www.w3.org/2000/svg" xmlns:xlink="http://www.w3.org/1999/xlink">
    <!-- Generator: Sketch 55.2 (78181) - https://sketchapp.com -->
    <title>catIcon</title>
    <desc>Created with Sketch.</desc>
    <defs>
        <rect id="path-1" x="0" y="0" width="37" height="42"></rect>
    </defs>
    <g id="Page-1" stroke="none" stroke-width="1" fill="none" fill-rule="evenodd">
        <g id="catIcon" transform="translate(-1.000000, -1.000000)">
            <g id="path0_fill-link" transform="translate(1.000000, 1.000000)" fill="#069FDD" fill-rule="nonzero">
                <path d="M35.6745,10.7915 L34.6934,8.56187 C34.6934,7.04571 34.3367,5.75251 33.6678,4.72687 C33.4002,3.8796 33.6678,2.36343 33.8016,1.82832 C33.8462,1.64994 33.8016,1.47157 33.6232,1.38239 C33.4894,1.2932 33.2664,1.24861 33.1327,1.38239 C32.553,1.73913 32.1516,2.18506 31.8841,2.54181 C32.0178,1.82832 32.33,1.02564 32.553,0.624303 C32.6867,0.445931 32.5975,0.222965 32.4638,0.0891862 L32.4192,0.0445931 L32.3746,0.0445931 C32.33,0.0445931 32.2854,8.50546e-08 32.2408,8.50546e-08 C32.1962,8.50546e-08 32.1516,8.50546e-08 32.107,8.50546e-08 C26.5329,0.981048 22.7425,6.19844 23.5006,11.728 C14.4482,14.8495 9.40914,25.2843 10.8807,37.7703 C5.93088,37.1906 2.09588,32.9543 2.09588,27.8707 C2.09588,24.0803 4.14716,20.8696 7.80379,18.8629 C12.8428,16.0981 12.5753,12.7982 12.4861,11.5496 C12.3523,9.76589 11.5496,8.20513 10.2118,7.0903 C8.82943,5.97547 7.00112,5.48495 5.21739,5.70792 C4.63768,5.7971 4.23634,6.33222 4.32553,6.91193 C4.37012,7.17949 4.5039,7.44705 4.72687,7.62542 C4.94983,7.80379 5.21739,7.84838 5.48495,7.84838 C6.68896,7.67001 7.93757,8.02676 8.87402,8.78484 C9.49833,9.27536 10.2564,10.2118 10.3902,11.728 C10.4794,12.8428 10.6132,14.9387 6.77815,17.0346 C2.45262,19.398 -1.70109e-07,23.3668 -1.70109e-07,27.9153 C-1.70109e-07,34.4259 5.08361,39.7324 11.6388,40.0000001 L26.3099,40.0000001 C26.8004,40.0000001 27.1126,39.5541 27.1126,38.9298 C27.1126,38.3946 26.8896,37.8595 26.5329,37.4582 C26.2207,37.1015 25.5964,36.6555 24.5708,36.6555 L23.5006,36.6555 C24.7492,36.0312 25.864,35.0502 26.6221,33.8462 L26.5329,35.4069 L29.476,39.9554 L32.7313,39.9554 C33.2219,39.9554 33.534,39.5095 33.534,38.8852 C33.534,38.3501 33.311,37.8149 32.9543,37.4136 C32.6421,37.1014 32.1516,36.7001 31.2598,36.6555 L30.1003,34.5596 C30.0111,34.3813 29.9666,34.1583 29.9666,33.9353 C29.9666,32.9097 30.0557,30.3233 30.4125,27.7369 C30.5909,26.3991 30.903,25.0167 31.126,23.8127 C31.4827,22.1182 31.7949,20.6912 31.7949,19.621 C31.7949,16.9454 30.9476,14.5373 30.4571,13.3333 L32.8651,14.0914 C32.9543,14.136 33.0881,14.136 33.1773,14.136 C33.4894,14.136 33.8016,14.0022 33.9799,13.7793 L35.5407,11.9064 C35.8082,11.5496 35.8528,11.1483 35.6745,10.7915 Z" id="path0_fill"></path>
            </g>
            <g id="Clipped">
                <mask id="mask-2" fill="white">
                    <use xlink:href="#path-1"></use>
                </mask>
                <g id="mask0_outline_inv"></g>
            </g>
        </g>
    </g>
</svg>