<svg width="30" height="37" viewBox="0 0 30 37" version="1.1" xmlns="http://www.w3.org/2000/svg" xmlns:xlink="http://www.w3.org/1999/xlink">
<title>noun_1292161_cc</title>
<desc>Created using Figma</desc>
<g id="Canvas" transform="translate(-3430 1380)">
<g id="noun_1292161_cc">
<g id="Vector">
<use xlink:href="#path0_fill" transform="translate(3430 -1380)" fill="#666666"/>
</g>
</g>
</g>
<defs>
<path id="path0_fill" d="M 29.4536 17.4552C 29.7555 17.4552 30 17.2105 30 16.9089C 30 16.6072 29.7555 16.3625 29.4536 16.3625L 27.3817 16.3625C 27.4984 15.8069 27.5625 15.237 27.5625 14.6549C 27.5625 14.535 27.551 14.4165 27.5459 14.2971L 29.2211 13.8534C 29.5128 13.776 29.6866 13.4771 29.6092 13.1854C 29.5319 12.894 29.2354 12.7206 28.9411 12.7971L 27.4313 13.197C 27.2595 12.2252 26.9124 11.2858 26.4055 10.3985L 27.233 1.31538C 27.2739 0.863923 27.0557 0.433141 26.6627 0.191299C 26.2577 -0.0576564 25.7358 -0.063658 25.3174 0.173516L 19.55 2.71992C 18.1594 2.15146 16.6144 1.83062 15 1.83062C 13.3856 1.83062 11.8406 2.15143 10.45 2.71986L 4.68236 0.173294C 4.26425 -0.0629911 3.74233 -0.0581009 3.33711 0.191521C 2.94412 0.433363 2.72562 0.863923 2.76696 1.31538L 3.59465 10.398C 3.08755 11.2855 2.74037 12.2251 2.56846 13.197L 1.05873 12.7971C 0.76776 12.7198 0.467903 12.8936 0.390771 13.1854C 0.313639 13.4771 0.487463 13.776 0.779097 13.8534L 2.45385 14.297C 2.44876 14.4164 2.43732 14.5349 2.43732 14.6549C 2.43732 15.237 2.50139 15.8069 2.61809 16.3625L 0.546368 16.3625C 0.244732 16.3625 -5.69041e-09 16.6072 -5.69041e-09 16.9089C -5.69041e-09 17.2105 0.244732 17.4552 0.546368 17.4552L 2.92597 17.4552C 3.13539 18.0454 3.40788 18.614 3.73958 19.1551L 0.685961 19.9639C 0.394327 20.0413 0.220503 20.3405 0.297635 20.6321C 0.362541 20.8766 0.583489 21.0384 0.825331 21.0384C 0.871788 21.0384 0.918689 21.0326 0.965591 21.0202L 4.40676 20.1087C 5.12717 21.0216 6.02049 21.8367 7.0526 22.5207C 3.27365 25.4382 0.784876 30.3732 0.784876 35.9588C 0.784876 36.3358 1.09051 36.6417 1.46772 36.6417C 1.84488 36.6417 2.15049 36.3359 2.15055 35.959C 2.15055 35.9589 2.15057 35.9589 2.15057 35.9588C 2.15057 30.5882 4.63057 25.8744 8.33656 23.2662C 10.2696 24.249 12.5533 24.8199 15 24.8199C 17.4467 24.8199 19.7304 24.249 21.6633 23.2662C 25.3692 25.8744 27.8492 30.5882 27.8492 35.9588C 27.8492 35.9589 27.8492 35.9589 27.8492 35.959C 27.8493 36.3359 28.1551 36.6417 28.5321 36.6417C 28.909 36.6417 29.2149 36.3358 29.2149 35.9588C 29.2149 30.3732 26.7261 25.4382 22.9473 22.5207C 23.9793 21.8367 24.8726 21.0216 25.593 20.1087L 29.034 21.0202C 29.0811 21.0326 29.1282 21.0384 29.1744 21.0384C 29.4163 21.0384 29.6372 20.8766 29.7021 20.6321C 29.7795 20.3405 29.6057 20.0413 29.314 19.9639L 26.2603 19.1551C 26.592 18.6139 26.8644 18.0454 27.0738 17.4552L 29.4536 17.4552ZM 21.0318 17.4552L 25.6121 17.4552C 25.4137 17.9181 25.1693 18.3644 24.8801 18.7895L 21.2652 17.832C 20.9727 17.7551 20.6744 17.9289 20.597 18.2203C 20.5197 18.512 20.6935 18.8109 20.9852 18.8881L 24.1431 19.7246C 23.4718 20.4702 22.6587 21.1313 21.7318 21.6811C 21.5075 21.8141 21.2755 21.9392 21.0385 22.059C 20.7868 22.1862 20.5293 22.3067 20.2645 22.4181C 18.6941 23.0784 16.9021 23.4542 15 23.4542C 13.0979 23.4542 11.3058 23.0784 9.73543 22.4181C 9.47058 22.3067 9.21307 22.1862 8.96142 22.059C 8.72444 21.9392 8.49235 21.8141 8.26801 21.681C 7.34121 21.1312 6.52807 20.4701 5.85673 19.7246L 9.01485 18.8881C 9.30648 18.8109 9.48031 18.512 9.40317 18.2203C 9.3256 17.9283 9.02574 17.7544 8.73522 17.832L 5.11975 18.7896C 4.83051 18.3645 4.58611 17.9182 4.38775 17.4552L 8.96817 17.4552C 9.2698 17.4552 9.51454 17.2105 9.51454 16.9089C 9.51454 16.6072 9.2698 16.3625 8.96817 16.3625L 4.01643 16.3625C 3.87753 15.8098 3.80301 15.2392 3.80301 14.6549C 3.80301 14.6547 3.80304 14.6546 3.80304 14.6544L 8.82835 15.9855C 8.87526 15.998 8.92216 16.0037 8.96861 16.0037C 9.21023 16.0037 9.4314 15.8419 9.49631 15.5972C 9.57344 15.3056 9.39962 15.0066 9.10798 14.9292L 3.89837 13.5493C 3.91463 13.4481 3.92938 13.3468 3.95008 13.2463C 4.05047 12.7589 4.20654 12.2818 4.40948 11.8164C 4.59931 11.3811 4.83362 10.9578 5.11045 10.5485C 5.31639 10.2441 5.53875 9.94529 5.79154 9.65849L 5.90313 9.53201L 5.9427 9.36797C 6.48467 7.13335 8.17546 5.28163 10.4366 4.20681C 10.7186 4.07278 11.012 3.95539 11.3107 3.84627C 11.634 3.72813 11.9668 3.62677 12.3068 3.53972C 13.1645 3.32019 14.0678 3.19632 15 3.19632C 15.9323 3.19632 16.8356 3.32022 17.6932 3.53975C 18.0333 3.62677 18.366 3.72813 18.6893 3.84627C 18.9879 3.95541 19.2815 4.07283 19.5635 4.2069C 21.8243 5.28168 23.5147 7.13323 24.0566 9.36775L 24.0966 9.53179L 24.2082 9.65827C 24.4609 9.94501 24.6833 10.2438 24.8892 10.5481C 25.1661 10.9576 25.4006 11.3811 25.5904 11.8167C 25.7933 12.2819 25.9493 12.7589 26.0497 13.2461C 26.0704 13.3466 26.0851 13.448 26.1014 13.5493L 20.8918 14.9292C 20.6002 15.0066 20.4263 15.3056 20.5037 15.5972C 20.5686 15.8419 20.7895 16.0037 21.0314 16.0037C 21.0776 16.0037 21.1247 15.998 21.1719 15.9855L 26.1967 14.6545C 26.1967 14.6546 26.1968 14.6548 26.1968 14.6549C 26.1968 15.2392 26.1222 15.8098 25.9834 16.3625L 21.0318 16.3625C 20.73 16.3625 20.4855 16.6072 20.4855 16.9089C 20.4855 17.2105 20.73 17.4552 21.0318 17.4552ZM 4.78994 8.46673L 4.14866 1.43074L 8.87075 3.51552C 6.92582 4.69653 5.45415 6.42521 4.78994 8.46673ZM 25.2097 8.4669C 24.5457 6.42535 23.0741 4.69667 21.1292 3.5156L 25.8509 1.43074L 25.2097 8.4669ZM 11.846 11.4285C 11.2632 11.0457 9.52476 11.3958 8.47604 11.7659C 8.41602 11.7873 8.35445 11.7973 8.29421 11.7973C 8.06904 11.7973 7.85832 11.657 7.77919 11.4327C 7.67871 11.1482 7.82787 10.8361 8.11239 10.7359C 8.61919 10.5567 11.2121 9.70428 12.4458 10.5154C 12.6981 10.681 12.7681 11.0197 12.6025 11.2718C 12.4366 11.5239 12.0979 11.5939 11.846 11.4285ZM 21.5244 11.7662C 20.4743 11.3965 18.7339 11.0471 18.1542 11.4285C 17.9021 11.5937 17.5634 11.5245 17.3975 11.2718C 17.2317 11.0197 17.3019 10.681 17.554 10.5154C 18.7886 9.70384 21.3799 10.5567 21.8876 10.7359C 22.1721 10.8361 22.3211 11.148 22.221 11.4325C 22.1419 11.657 21.9307 11.7973 21.7058 11.7973C 21.6453 11.7973 21.584 11.7873 21.5244 11.7662ZM 17.6923 17.2867C 17.8897 17.513 17.8688 17.8547 17.6438 18.0536C 17.5705 18.1185 16.9948 18.606 16.2706 18.606C 16.1394 18.606 16.0038 18.59 15.8656 18.5529C 15.5306 18.463 15.2425 18.2635 15 17.9638C 14.7575 18.2635 14.4694 18.463 14.1344 18.5529C 13.9962 18.59 13.8604 18.606 13.7294 18.606C 13.0052 18.606 12.4295 18.1185 12.356 18.0536C 12.1299 17.8538 12.1088 17.5086 12.3086 17.2825C 12.5069 17.0569 12.8508 17.0351 13.0773 17.233C 13.1868 17.3272 13.5636 17.5768 13.8541 17.497C 14.0759 17.4357 14.2845 17.1597 14.4479 16.7199L 14.4479 15.9597C 14.3741 15.903 14.3051 15.838 14.2486 15.7554L 13.5605 14.75C 13.147 14.1457 13.5797 13.3253 14.3119 13.3253L 15.688 13.3253C 16.4202 13.3253 16.8529 14.1457 16.4394 14.75L 15.7513 15.7554C 15.6949 15.8379 15.6258 15.9029 15.5521 15.9597L 15.5521 16.7199C 15.7155 17.1597 15.9239 17.4357 16.1461 17.497C 16.4346 17.5773 16.8138 17.3268 16.9227 17.2327C 17.1512 17.0367 17.4958 17.0602 17.6923 17.2867Z"/>
</defs>
</svg>
