<svg width="40" height="40" viewBox="0 0 40 40" version="1.1" xmlns="http://www.w3.org/2000/svg" xmlns:xlink="http://www.w3.org/1999/xlink">
<title>noun_851494_cc</title>
<desc>Created using Figma</desc>
<g id="Canvas" transform="translate(-1262 694)">
<g id="noun_851494_cc">
<g id="Group">
<g id="Vector">
<use xlink:href="#path0_fill" transform="translate(1274.77 -694)" fill="#666666"/>
</g>
<g id="Vector">
<use xlink:href="#path1_fill" transform="translate(1262 -688.47)" fill="#666666"/>
</g>
</g>
</g>
</g>
<defs>
<path id="path0_fill" d="M 7.14711 10.772C 3.24002 10.772 -7.27042e-07 8.33034 -7.27042e-07 5.386C -7.27042e-07 2.44165 3.24002 0 7.14711 0C 11.0542 0 14.2942 2.44165 14.2942 5.386C 14.2942 8.33034 11.0542 10.772 7.14711 10.772ZM 7.14711 1.43627C 4.28827 1.43627 1.9059 3.2316 1.9059 5.386C 1.9059 7.54039 4.28827 9.33573 7.14711 9.33573C 10.006 9.33573 12.3883 7.54039 12.3883 5.386C 12.3883 3.2316 10.006 1.43627 7.14711 1.43627Z"/>
<path id="path1_fill" d="M 14.5801 34.4704C 14.1989 34.4704 13.8177 34.3986 13.4366 34.3267C 12.1024 34.0395 11.0542 32.9623 11.0542 31.8133L 11.0542 12.0646L 0.952948 4.52424C 0.285885 4.02154 9.08802e-08 3.37522 9.08802e-08 2.65709C 9.08802e-08 1.93896 0.381179 1.29264 0.952948 0.789945C 2.28708 -0.21544 4.47886 -0.21544 5.90828 0.789945L 12.9601 6.03231L 27.0637 6.03231L 34.1155 0.789945C 34.7826 0.287253 35.7356 5.47892e-07 36.6885 5.47892e-07C 37.6415 5.47892e-07 38.4991 0.287253 39.0709 0.861759C 40.3097 1.93896 40.3097 3.59066 39.0709 4.59605L 28.9696 12.1364L 28.9696 31.8133C 28.9696 32.6032 28.3979 33.3932 27.5402 33.8959C 26.5873 34.3986 25.4437 34.5422 24.3002 34.2549C 22.9661 33.9677 21.9178 32.8905 21.9178 31.7415L 21.9178 24.0574C 21.9178 23.3393 21.1555 22.7648 20.2025 22.7648L 19.8213 22.7648C 18.8684 22.7648 18.106 23.3393 18.106 24.0574L 18.106 31.8133C 18.106 32.6032 17.5342 33.3932 16.6766 33.8959C 16.0095 34.2549 15.2472 34.4704 14.5801 34.4704ZM 19.8213 21.3285L 20.2025 21.3285C 22.2037 21.3285 23.8237 22.5494 23.8237 24.0574L 23.8237 31.7415C 23.8237 32.316 24.2049 32.8187 24.8719 32.8905C 25.4437 33.0341 26.0155 32.9623 26.3967 32.7469C 26.7778 32.5314 27.0637 32.1723 27.0637 31.8133L 27.0637 11.8492C 27.0637 11.6338 27.159 11.4901 27.3496 11.3465L 37.7367 3.59066C 38.3085 3.08797 38.3085 2.29803 37.7367 1.79533C 37.4509 1.57989 37.0697 1.43627 36.6885 1.43627C 36.212 1.43627 35.8308 1.57989 35.4497 1.79533L 28.112 7.25314C 27.9214 7.39677 27.7308 7.46858 27.4449 7.46858L 12.5789 7.46858C 12.293 7.46858 12.1024 7.39677 11.9119 7.25314L 4.57415 1.79533C 3.90709 1.36445 2.85884 1.36445 2.28708 1.79533C 1.71531 2.22621 1.71531 3.08797 2.28708 3.51885L 12.6742 11.2747C 12.8648 11.4183 12.9601 11.5619 12.9601 11.7774L 12.9601 31.7415C 12.9601 32.316 13.3413 32.8187 14.0083 32.8905C 14.5801 33.0341 15.1519 32.9623 15.5331 32.7469C 15.9142 32.5314 16.2001 32.1723 16.2001 31.8133L 16.2001 24.0574C 16.2001 22.5494 17.8201 21.3285 19.8213 21.3285Z"/>
</defs>
</svg>
