<svg width="40" height="29" viewBox="0 0 40 29" version="1.1" xmlns="http://www.w3.org/2000/svg" xmlns:xlink="http://www.w3.org/1999/xlink">
<title>Vector</title>
<desc>Created using Figma</desc>
<g id="Canvas" transform="translate(1523 1270)">
<g id="Vector">
<use xlink:href="#path0_fill" transform="translate(-1523 -1270)" fill="#0592D3"/>
</g>
</g>
<defs>
<path id="path0_fill" d="M 39.678 3.37999C 39.2562 3.29562 37.9485 2.91598 37.822 2.8738C 37.6955 2.78943 37.4424 2.70507 37.358 2.24106C 37.2736 1.77706 37.3158 1.31305 36.6409 0.849042C 35.9238 0.342854 35.6285 0.385036 35.4176 0.216306C 34.827 0.0053945 33.9834 -0.07897 33.1398 0.0897596C 32.2539 0.258489 32.0008 0.680313 31.5368 0.933408C 31.0728 1.1865 30.3979 2.1567 30.0183 2.53634C 29.6386 2.91598 28.12 4.85637 27.4451 5.19383C 26.8124 5.53129 25.4626 6.12184 24.8298 6.16402C 24.1971 6.24839 23.5643 6.29057 23.0582 6.62803C 22.552 6.92331 22.1723 7.1764 20.7803 7.30295C 19.3883 7.4295 16.0137 7.26077 15.381 7.1764C 14.7904 7.09204 13.3984 6.83894 12.5126 7.00767C 11.5845 7.21858 11.2049 7.38731 10.8674 7.26077C 10.53 7.13422 9.64416 7.00767 9.05361 7.04985C 8.46305 7.09204 7.23976 7.59823 6.73357 7.68259C 6.22739 7.76695 5.08846 7.59823 4.41354 7.26077C 3.82299 6.96549 1.92478 6.20621 1.41859 6.07966C 0.912404 5.99529 0.448398 5.91093 0.195303 6.07966C -0.0156086 6.20621 -0.184338 6.83894 0.406215 7.4295C 0.996769 7.97787 2.43097 9.3277 2.93716 9.66516C 3.44335 10.0026 4.54009 10.6354 5.51028 10.6354C 6.52266 10.6775 7.28195 10.4666 7.57722 10.3823C 7.8725 10.2979 8.16778 10.1714 8.12559 10.2557C 8.08341 10.3401 7.6194 12.3227 7.28194 13.0398C 6.94449 13.7147 6.26957 16.2034 6.01647 17.2158C 5.76338 18.2282 5.38374 19.7468 4.87755 20.1264C 4.37136 20.506 3.86517 20.6748 3.48553 21.7715C 3.06371 22.8261 2.81061 25.6101 2.64188 25.9897C 2.43097 26.3694 2.38879 27.0443 2.5997 27.2552C 2.81061 27.4661 3.06371 27.5927 3.27462 27.5927C 3.52771 27.6349 3.65426 27.677 3.86517 27.677C 4.07608 27.677 4.32918 27.7192 4.58227 27.5927C 4.79318 27.4661 5.0041 27.2552 4.91973 27.0865C 4.83537 26.8756 4.287 26.6647 4.24481 26.1163C 4.16045 25.5679 4.54009 23.8806 4.66664 23.6275C 4.79318 23.3744 5.25719 22.4464 5.59465 22.109C 5.93211 21.7715 6.1852 21.2231 6.4383 21.0966C 6.69139 20.97 8.75833 19.1984 8.75833 19.1984C 8.75833 19.1984 7.1554 22.109 7.28194 22.9948C 7.40849 23.8806 7.78813 24.9352 7.8725 25.1883C 7.99905 25.4836 8.08341 26.1585 8.67396 26.2428C 9.26452 26.3272 10.1503 26.3272 10.4456 26.2428C 10.7409 26.1585 10.9518 25.5257 10.6987 25.3148C 10.4456 25.0617 9.81289 25.0196 9.55979 25.0196C 9.3067 24.9774 9.18015 24.9352 9.09579 24.0915C 9.01142 23.2901 8.88488 22.5308 9.05361 22.2355C 9.22234 21.9402 9.81289 20.97 10.1082 20.8013C 10.4034 20.6326 11.9642 19.5358 12.8078 18.6078C 13.6515 17.6798 14.242 16.9205 14.3264 16.8362C 14.4108 16.7518 14.8748 15.866 15.381 15.9503C 15.8872 16.0769 17.5744 16.5409 17.5744 16.5409C 17.8275 16.5831 18.9665 16.8362 19.6836 17.3845C 20.4007 17.9751 21.624 18.2704 22.8051 18.3969C 24.0284 18.5235 24.872 18.5656 24.872 18.5656C 24.872 18.5656 25.6313 19.2406 25.7157 20.042C 25.8 20.8435 25.9687 21.5606 25.9687 21.9824C 25.9687 22.3199 26.0531 23.1635 26.0953 23.3744C 26.1375 23.5854 26.1797 25.1039 26.2218 25.3148C 26.264 25.4836 26.3062 26.3272 26.3906 26.5803C 26.4328 26.8334 26.8124 27.7614 26.9389 27.9301C 27.0655 28.0989 27.656 28.2676 28.0779 28.3098C 28.4575 28.352 28.8371 28.2676 29.0059 28.1832C 29.1324 28.0989 29.2168 27.7614 29.2168 27.6349C 29.1746 27.5083 29.0059 27.3818 29.0059 27.3818C 29.0059 27.3818 29.5543 27.5505 30.0183 27.5505C 30.4401 27.5505 30.8619 27.4661 30.9463 27.3818C 31.0728 27.2552 31.3681 26.8334 30.9463 26.4538C 30.5666 26.1163 30.187 26.0741 29.8495 26.1163C 29.5121 26.1585 28.9637 25.4414 28.9637 24.9352C 28.9637 24.4712 29.0902 23.0792 29.1324 22.7839C 29.1746 22.4886 29.4277 20.5904 29.7652 19.4093C 30.1026 18.2282 29.8495 18.2282 30.5244 17.5111C 31.1572 16.794 32.8023 14.6849 32.8867 13.4616C 32.971 12.2805 32.8445 11.2681 33.3507 10.2979C 33.8569 9.3277 34.574 7.55604 34.6583 7.4295C 34.7427 7.30295 34.9536 6.20621 35.0801 6.20621C 35.2067 6.20621 37.2736 6.58585 37.8642 6.4593C 38.4547 6.33275 38.9187 5.95311 39.1297 5.91093C 39.4249 5.86875 39.678 5.44692 39.7624 4.98292C 39.8889 4.47673 39.8889 4.43455 39.9311 3.97054C 40.0155 3.80181 40.0998 3.42217 39.678 3.37999Z"/>
</defs>
</svg>
