<svg width="27" height="40" viewBox="0 0 27 40" version="1.1" xmlns="http://www.w3.org/2000/svg" xmlns:xlink="http://www.w3.org/1999/xlink">
<title>noun_492698_cc</title>
<desc>Created using Figma</desc>
<g id="Canvas" transform="translate(-1269 887)">
<g id="noun_492698_cc">
<g id="Vector">
<use xlink:href="#path0_fill" transform="translate(1269 -887)" fill="#666666"/>
</g>
</g>
</g>
<defs>
<path id="path0_fill" d="M 17.7694 40C 15.494 40 13.7119 38.7475 13.7119 37.1491C 13.7119 36.8534 13.7752 36.5637 13.8961 36.2885L 12.9992 36.2885C 13.1206 36.5637 13.1833 36.8534 13.1833 37.1491C 13.1833 38.7475 11.4013 40 9.12544 40C 7.65255 40 6.38562 39.4751 5.67614 38.6708C 5.62965 38.6973 5.57851 38.7173 5.52365 38.7298C 5.11126 38.8247 4.6798 38.8726 4.24045 38.8726C 4.07865 38.8726 3.90384 38.8637 3.72066 38.8437C 3.68626 38.8474 3.65092 38.8479 3.61512 38.8456C 3.55515 38.8414 3.49843 38.8274 3.44496 38.8065C 2.17292 38.5996 0.670739 37.8627 0.670739 36.0212C 0.670739 35.0271 1.38719 34.1252 2.54068 33.6119C 1.28491 30.8023 1.95952 28.8264 2.7671 27.6501C 3.05814 27.2266 3.78807 25.9067 3.88431 25.4915C 4.44874 23.0557 5.64778 19.1782 7.1681 16.2669C 7.17507 16.2539 7.18204 16.2413 7.18995 16.2287C 7.17786 15.9744 7.15368 15.7285 7.1044 15.5053C 6.87333 15.9168 6.57066 16.2074 6.17919 16.3324C 5.08615 16.6825 3.44263 15.8666 2.29752 14.9032C 0.640054 13.5089 -0.184262 11.8008 0.0347184 10.2158C 0.483373 6.97762 1.60245 5.8353 2.8982 4.51258L 3.00746 4.40007C 5.71706 1.60818 7.37778 0.554658 8.38899 0.98518C 8.45036 1.01122 8.51406 1.03539 8.57682 1.0591C 8.64377 1.08467 8.71491 1.11164 8.78743 1.14233C 10.4714 0.394258 12.0326 -5.85274e-08 13.3177 -5.85274e-08C 14.97 -5.85274e-08 16.9404 0.717382 17.993 1.1572C 18.1102 1.1135 18.232 1.06887 18.3454 1.0075C 19.782 0.234323 23.72 4.34102 23.8869 4.5163L 23.9924 4.62695C 25.3872 6.08915 26.3087 7.05527 26.7466 10.2154C 26.9661 11.8003 26.1413 13.5085 24.4838 14.9028C 23.3387 15.8656 21.6933 16.682 20.6022 16.332C 20.1479 16.1864 19.8318 15.8336 19.6188 15.331C 19.5449 15.6229 19.4961 15.9354 19.4608 16.2562C 20.6003 18.4339 21.4269 21.5247 22.1583 24.259C 22.262 24.6462 22.3638 25.027 22.4642 25.3971C 22.6218 25.9783 23.1974 27.0141 23.5577 27.4544C 25.7536 30.1384 24.9106 32.6528 24.4113 33.6603C 25.5071 34.1833 26.1743 35.0653 26.1743 36.0202C 26.1743 37.6186 24.3922 38.8712 22.1164 38.8712C 21.8086 38.8712 21.6873 38.8456 21.5148 38.7847C 21.473 38.7698 21.4195 38.7512 21.3214 38.7284C 21.2791 38.7187 21.2396 38.7047 21.2019 38.687C 20.4906 39.4821 19.2316 40 17.7694 40ZM 17.111 38.8149C 17.5309 38.8739 17.9925 38.8749 18.4128 38.8168L 18.4128 37.2648C 18.4128 36.9501 18.6676 36.6953 18.9824 36.6953C 19.2971 36.6953 19.5519 36.9501 19.5519 37.2648L 19.5519 38.4932C 20.2381 38.1766 20.6872 37.687 20.6872 37.1486C 20.6872 36.6246 20.247 36.2397 19.9847 36.0565C 19.7867 35.9184 19.6969 35.6706 19.7616 35.4377C 19.815 35.2443 19.842 35.0508 19.842 34.8626C 19.8374 34.7375 19.7142 31.298 19.8453 30.1026C 19.8736 29.8441 19.9434 29.508 20.0173 29.1523C 20.1112 28.699 20.2177 28.1853 20.2177 27.91C 20.2177 27.5953 20.4724 27.3405 20.7872 27.3405C 21.102 27.3405 21.3567 27.5953 21.3567 27.91C 21.3567 28.302 21.2428 28.852 21.1326 29.3834C 21.0648 29.7116 21.0001 30.0222 20.9778 30.2268C 20.8555 31.3403 20.9797 34.8068 20.9806 34.8416C 20.9806 35.0188 20.9676 35.1908 20.9416 35.36C 21.5148 35.8617 21.8263 36.4856 21.8263 37.1481C 21.8263 37.3257 21.8045 37.4992 21.7617 37.6675C 21.817 37.6842 21.8589 37.6986 21.8956 37.7116C 21.9393 37.7265 21.9844 37.7293 22.1434 37.7325L 22.2373 36.2081C 22.2568 35.8942 22.5251 35.658 22.8408 35.6748C 23.1546 35.6943 23.3936 35.9644 23.3741 36.2783L 23.2941 37.5824C 24.3095 37.3113 25.0357 36.7051 25.0357 36.0212C 25.0357 35.4581 24.5168 34.9081 23.6818 34.5864C 23.5875 34.5501 23.5052 34.4897 23.4419 34.4106L 23.2364 34.1535C 23.0793 33.9573 23.0695 33.6812 23.2123 33.4743C 23.2834 33.3715 24.9246 30.9251 22.6762 28.1769C 22.2778 27.6897 21.5864 26.5106 21.3651 25.697C 21.2642 25.3255 21.1619 24.9433 21.0578 24.5542C 20.531 22.5843 19.9536 20.4252 19.2548 18.5989C 19.1004 19.6957 18.6509 20.3894 17.9163 20.6623C 17.4411 20.8385 16.9032 20.7971 16.3606 20.6335C 15.5833 21.5503 14.0746 21.5503 13.3846 21.5503L 13.1949 21.5512C 12.3009 21.5587 10.8401 21.567 10.1432 20.4294C 9.8033 20.4754 9.46437 20.4684 9.13753 20.3871C 8.57403 20.2471 7.81062 19.8189 7.37592 18.5729C 7.37545 18.5715 7.37499 18.5706 7.37452 18.5692C 7.36941 18.5538 7.36429 18.538 7.35918 18.5222C 6.27869 21.0189 5.43671 23.8377 4.99409 25.7486C 4.83974 26.4134 3.97683 27.9007 3.70578 28.295C 2.73827 29.7037 2.73827 31.4267 3.70578 33.4166C 3.73926 33.4859 3.76483 33.5389 3.77971 33.5733C 3.79784 33.6156 3.81039 33.6589 3.81783 33.7021C 3.82899 33.7263 3.83829 33.7518 3.84619 33.7783C 3.93499 34.0801 3.76204 34.3967 3.4603 34.4855C 2.4728 34.7756 1.80935 35.393 1.80935 36.0212C 1.80935 36.9636 2.48674 37.3885 3.13625 37.5796L 3.23295 36.2601C 3.25573 35.9463 3.52772 35.7055 3.84294 35.7338C 4.15676 35.7571 4.39248 36.03 4.36923 36.3438L 4.26695 37.7335C 4.56078 37.7321 4.8495 37.7037 5.12706 37.6493C 5.08801 37.4871 5.06755 37.3202 5.06755 37.1486C 5.06755 36.4772 5.38649 35.8463 5.97323 35.3419C 5.94905 35.1815 5.9365 35.0211 5.9365 34.8626C 5.93929 34.7951 6.12805 30.8805 5.94301 29.6382C 5.92302 29.5038 5.85746 29.2737 5.79423 29.0514C 5.6794 28.6488 5.56131 28.2322 5.56131 27.91C 5.56131 27.5953 5.81609 27.3405 6.13084 27.3405C 6.4456 27.3405 6.70038 27.5953 6.70038 27.91C 6.70038 28.0732 6.8101 28.4586 6.89007 28.7399C 6.96678 29.0091 7.03884 29.263 7.06999 29.4703C 7.27177 30.8233 7.08348 34.7249 7.07557 34.8904C 7.07604 35.0462 7.10254 35.2359 7.15368 35.4265C 7.21691 35.6599 7.12532 35.9082 6.92587 36.0449C 6.65761 36.229 6.20709 36.6167 6.20709 37.1486C 6.20709 37.6442 6.58833 38.0989 7.18483 38.4151L 7.18483 37.2648C 7.18483 36.9501 7.43961 36.6953 7.75437 36.6953C 8.06912 36.6953 8.3239 36.9501 8.3239 37.2648L 8.3239 38.7926C 8.73676 38.8642 9.19704 38.8795 9.6257 38.8344L 9.6257 37.2648C 9.6257 36.9501 9.88048 36.6953 10.1952 36.6953C 10.51 36.6953 10.7648 36.9501 10.7648 37.2648L 10.7648 38.5555C 11.531 38.2435 12.0438 37.7237 12.0438 37.1491C 12.0438 36.7013 11.7304 36.3578 11.4673 36.1481C 11.2948 36.0109 11.2181 35.7873 11.2669 35.5753C 11.2948 35.3424 11.3027 34.0843 11.3092 32.9722C 11.3185 31.4467 11.3292 29.7177 11.3873 28.9333C 11.411 28.6149 11.4705 28.1867 11.5333 27.7334C 11.6184 27.122 11.7146 26.4292 11.7146 26.0313C 11.7146 25.7165 11.9694 25.4617 12.2842 25.4617C 12.5989 25.4617 12.8537 25.7165 12.8537 26.0313C 12.8537 26.5074 12.7561 27.2103 12.6617 27.89C 12.6012 28.3252 12.5445 28.7357 12.5236 29.0175C 12.4683 29.7632 12.458 31.4718 12.4487 32.9791C 12.4418 34.0722 12.4362 34.7347 12.426 35.1494L 14.4898 35.1494C 14.4814 34.7645 14.4777 34.161 14.4735 33.1832C 14.4674 31.6759 14.46 29.8009 14.3945 29.0231C 14.3707 28.7432 14.3057 28.3327 14.2368 27.8984C 14.129 27.2173 14.0169 26.5129 14.0169 26.0313C 14.0169 25.7165 14.2717 25.4617 14.5865 25.4617C 14.9012 25.4617 15.156 25.7165 15.156 26.0313C 15.156 26.4227 15.2653 27.1118 15.362 27.7199C 15.434 28.1755 15.5024 28.6056 15.5298 28.9273C 15.5991 29.7507 15.6065 31.5718 15.613 33.1791C 15.6172 34.1963 15.6219 35.3465 15.6465 35.5646C 15.6939 35.7775 15.6158 36.0007 15.4419 36.1369C 15.1723 36.3485 14.851 36.6953 14.851 37.1491C 14.851 37.6833 15.2941 38.17 15.9724 38.4867L 15.9724 37.2648C 15.9724 36.9501 16.2272 36.6953 16.542 36.6953C 16.8567 36.6953 17.1115 36.9501 17.1115 37.2648L 17.1115 38.8149L 17.111 38.8149ZM 11.339 20.0774C 11.7467 20.3898 12.4236 20.4149 13.188 20.4126L 13.3851 20.4117C 13.7747 20.4117 14.6506 20.4117 15.1965 20.1211C 14.4409 19.6962 13.7668 19.1587 13.3572 18.8049C 12.9174 19.1648 12.1749 19.7124 11.339 20.0774ZM 14.2592 18.0782C 15.328 18.9704 16.7953 19.8635 17.5206 19.5948C 17.7099 19.5246 17.8451 19.3554 17.9414 19.1438C 17.9479 19.1062 17.9586 19.0685 17.973 19.0318C 18.0567 18.8193 18.1106 18.5534 18.1497 18.2554C 18.1497 18.2544 18.1497 18.2535 18.1497 18.2526C 18.1506 18.24 18.1525 18.2279 18.1543 18.2154C 18.1938 17.8997 18.2176 17.5496 18.2417 17.1893C 18.2905 16.4686 18.3408 15.7234 18.5235 15.0199C 18.6592 14.495 18.9066 13.9525 19.2576 13.4071C 19.1906 12.0607 19.3515 10.4227 19.5389 8.84524L 19.5961 8.35892C 19.7858 6.65032 19.4161 4.73017 18.7541 3.98721C 18.6867 3.91143 18.629 3.83937 18.5639 3.75661C 18.4184 3.5725 18.2371 3.34283 17.7368 2.85837C 17.4969 2.62637 17.2784 2.37345 17.2356 2.07869C 15.7121 1.47149 14.3312 1.13954 13.3177 1.13954C 12.2516 1.13954 10.9405 1.46173 9.50017 2.07497C 9.47692 2.43854 9.21563 2.73656 9.00502 2.94066C 8.57868 3.35352 8.40527 3.56041 8.27881 3.71198C 8.17885 3.83146 8.1026 3.92119 7.99009 4.02534C 7.6042 4.3838 7.21412 5.44011 7.54701 8.44029C 7.75065 10.2721 7.85898 12.3378 7.6042 13.906C 7.85107 14.3202 8.07656 14.7233 8.17885 15.1064C 8.33506 15.6885 8.33878 16.3352 8.34157 16.9057C 8.34436 17.4138 8.34715 17.8936 8.45176 18.2C 8.66888 18.8221 8.9827 19.1764 9.41137 19.2824C 10.3105 19.5051 11.6416 18.6863 12.4464 18.0703C 11.657 17.4138 10.8573 16.2255 10.8234 15.7717C 10.7871 15.2887 10.9559 14.82 11.298 14.4509C 11.6625 14.058 12.1758 13.833 12.7063 13.833L 14.0216 13.833C 14.5502 13.833 15.0616 14.0571 15.4257 14.4476C 15.7692 14.8163 15.9394 15.2859 15.9055 15.7699C 15.8748 16.2148 15.0523 17.4208 14.2592 18.0782ZM 12.7077 14.9716C 12.4962 14.9716 12.2818 15.0664 12.1344 15.225C 12.0624 15.3026 11.9438 15.4658 11.9606 15.6862C 12.0531 15.994 12.9518 17.1112 13.3563 17.3534C 13.7608 17.0991 14.646 16.0144 14.7715 15.6592C 14.7757 15.4509 14.6632 15.298 14.5934 15.2231C 14.4465 15.0655 14.2331 14.9711 14.023 14.9711L 12.7077 14.9711L 12.7077 14.9716ZM 19.6049 3.22938C 20.6017 4.348 20.9248 6.72006 20.7286 8.48492L 20.671 8.98007C 20.0549 14.1589 20.5817 15.1301 20.9509 15.2482C 21.4228 15.3998 22.6283 14.9772 23.7516 14.032C 25.0831 12.912 25.7815 11.5437 25.6192 10.3725C 25.2319 7.57645 24.5424 6.85395 23.169 5.41408L 23.063 5.30296C 21.9918 4.17876 19.5026 2.05405 18.8438 2.03359C 18.7685 2.07218 18.6955 2.10519 18.6258 2.13448C 19.1102 2.6101 19.3101 2.86349 19.4584 3.05132C 19.5087 3.11455 19.5528 3.1708 19.6049 3.22938ZM 7.89384 2.02848C 7.67719 2.02848 6.69666 2.23444 3.82573 5.1937L 3.71415 5.30854C 2.4635 6.58523 1.56061 7.50671 1.16356 10.3725C 1.0013 11.5441 1.69962 12.912 3.03117 14.032C 4.1549 14.9772 5.36092 15.3998 5.83189 15.2482C 6.46141 15.0464 6.85194 12.4921 6.41538 8.56582C 6.09272 5.66095 6.33913 4.00349 7.21505 3.19033C 7.28944 3.12152 7.33826 3.06061 7.40474 2.98111C 7.53818 2.82164 7.73902 2.58081 8.19977 2.13448C 8.19047 2.13076 8.18164 2.12751 8.1728 2.12425C 8.09609 2.09496 8.01845 2.06567 7.94359 2.03359C 7.94266 2.03359 7.92778 2.02848 7.89384 2.02848ZM 15.309 9.07259C 14.9942 9.07259 14.7408 8.81409 14.7408 8.4998C 14.7408 7.66665 15.5433 7.23055 16.336 7.23055C 17.1789 7.23055 17.768 7.75266 17.768 8.4998C 17.768 8.81455 17.5132 9.06933 17.1984 9.06933C 16.8837 9.06933 16.6289 8.81455 16.6289 8.4998C 16.6289 8.41332 16.5303 8.36962 16.336 8.36962C 16.0738 8.36962 15.9013 8.46772 15.8766 8.5063C 15.8766 8.82106 15.6233 9.07259 15.309 9.07259ZM 11.4487 9.06933C 11.1339 9.06933 10.8791 8.81455 10.8791 8.4998L 10.8791 8.49701C 10.8582 8.46772 10.6857 8.36962 10.4235 8.36962C 10.2292 8.36962 10.1306 8.41332 10.1306 8.4998C 10.1306 8.81455 9.87583 9.06933 9.56107 9.06933C 9.24632 9.06933 8.99154 8.81455 8.99154 8.4998C 8.99154 7.75266 9.5806 7.23055 10.4235 7.23055C 11.2162 7.23055 12.0182 7.66665 12.0182 8.4998C 12.0182 8.81409 11.7634 9.06933 11.4487 9.06933Z"/>
</defs>
</svg>
