<svg width="40" height="30" viewBox="0 0 40 30" version="1.1" xmlns="http://www.w3.org/2000/svg" xmlns:xlink="http://www.w3.org/1999/xlink">
<title>noun_1186959_cc</title>
<desc>Created using Figma</desc>
<g id="Canvas" transform="translate(-3430 1143)">
<g id="noun_1186959_cc">
<g id="Group">
<g id="Group">
<g id="Group">
<g id="Vector">
<use xlink:href="#path0_fill" transform="translate(3446.32 -1143)" fill="#666666"/>
</g>
</g>
</g>
<g id="Group">
<g id="Group">
<g id="Vector">
<use xlink:href="#path1_fill" transform="translate(3443.43 -1135.15)" fill="#666666"/>
</g>
</g>
</g>
<g id="Group">
<g id="Group">
<g id="Vector">
<use xlink:href="#path2_fill" transform="translate(3432.48 -1139.22)" fill="#666666"/>
</g>
</g>
</g>
<g id="Group">
<g id="Group">
<g id="Vector">
<use xlink:href="#path3_fill" transform="translate(3430 -1131.37)" fill="#666666"/>
</g>
</g>
</g>
<g id="Group">
<g id="Group">
<g id="Vector">
<use xlink:href="#path4_fill" transform="translate(3460.17 -1139.22)" fill="#666666"/>
</g>
</g>
</g>
<g id="Group">
<g id="Group">
<g id="Vector">
<use xlink:href="#path5_fill" transform="translate(3457.69 -1131.37)" fill="#666666"/>
</g>
</g>
</g>
</g>
</g>
</g>
<defs>
<path id="path0_fill" d="M 6.11962 3.69538C 6.11962 3.7751 6.11543 3.85061 6.11123 3.93033C 6.10704 3.96809 6.10284 4.00584 6.09865 4.0436C 6.09865 4.03521 6.11543 3.94291 6.10284 4.01843C 6.07767 4.17786 6.03991 4.33309 5.98957 4.48412C 5.98118 4.51349 5.92244 4.67292 5.94342 4.61838C 5.96439 4.56384 5.89727 4.71907 5.88468 4.74424C 5.81336 4.88269 5.73364 5.01694 5.64554 5.147C 5.62876 5.16798 5.61198 5.19315 5.59519 5.21413C 5.66652 5.12183 5.60778 5.19735 5.591 5.21413C 5.54066 5.26867 5.49451 5.32321 5.44416 5.37775C 5.39801 5.4239 5.35605 5.47005 5.30571 5.512C 5.28054 5.53298 5.10013 5.67982 5.20082 5.6043C 5.09174 5.68821 4.97427 5.75953 4.8568 5.82666C 4.80226 5.85603 4.74352 5.88959 4.68479 5.91476C 4.65122 5.93155 4.61766 5.94833 4.5841 5.96091C 4.66801 5.92735 4.60088 5.95252 4.55473 5.96931C 4.42048 6.01545 4.28622 6.05741 4.14777 6.08258C 4.10582 6.09097 3.90863 6.12034 4.03449 6.10356C 3.95898 6.11195 3.87926 6.11615 3.80375 6.12034C 3.65691 6.12454 3.51007 6.12034 3.36742 6.10775C 3.26673 6.09936 3.46392 6.12454 3.36323 6.10775C 3.32547 6.09936 3.28771 6.09517 3.24995 6.08678C 3.16604 6.06999 3.08633 6.04902 3.00242 6.02804C 2.93949 6.01126 2.87656 5.98609 2.81782 5.96931C 2.79265 5.96091 2.76748 5.94833 2.73811 5.93994C 2.84719 5.98189 2.75908 5.94833 2.73391 5.93994C 2.59966 5.87701 2.4696 5.80988 2.34793 5.73017C 2.285 5.69241 2.22626 5.65045 2.16753 5.6043C 2.26822 5.67982 2.1046 5.54976 2.08362 5.52878C 1.97454 5.43229 1.87804 5.32321 1.78155 5.21413C 1.76477 5.19735 1.71023 5.12183 1.77735 5.21413C 1.76057 5.19315 1.74379 5.17217 1.72701 5.147C 1.68505 5.08826 1.6431 5.02533 1.60534 4.9624C 1.57178 4.90786 1.54241 4.85332 1.50885 4.79458C 1.49207 4.76102 1.47528 4.72746 1.4585 4.69389C 1.45011 4.68131 1.39137 4.54286 1.42494 4.61838C 1.44592 4.67292 1.38718 4.51349 1.37879 4.48412C 1.35362 4.4128 1.33264 4.34148 1.31586 4.26596C 1.29908 4.19044 1.28229 4.11912 1.26971 4.0436C 1.26971 4.03521 1.25712 3.94291 1.26551 4.01424C 1.2781 4.09814 1.26132 3.94291 1.25712 3.92613C 1.24453 3.77929 1.24453 3.63245 1.25712 3.48561C 1.26132 3.44785 1.28229 3.27584 1.26132 3.39331C 1.2739 3.3094 1.29068 3.22549 1.31166 3.14159C 1.34522 3.00314 1.38718 2.87308 1.43752 2.73882C 1.39137 2.86049 1.47528 2.66331 1.48787 2.63394C 1.52143 2.56681 1.555 2.50388 1.59276 2.44095C 1.63051 2.37802 1.66827 2.31509 1.71023 2.25635C 1.7312 2.22698 1.75218 2.19761 1.77316 2.16825C 1.75638 2.18922 1.69764 2.25635 1.77735 2.16825C 1.87385 2.05916 1.97034 1.95008 2.07943 1.85359C 2.1046 1.82842 2.13397 1.80744 2.16333 1.78227C 2.16753 1.77807 2.23885 1.71933 2.18431 1.76129C 2.12558 1.80744 2.21787 1.74031 2.23046 1.72773C 2.25983 1.70675 2.2892 1.68577 2.32276 1.66479C 2.44443 1.58508 2.57449 1.51376 2.70874 1.45083C 2.72552 1.44244 2.83041 1.40048 2.75908 1.42565C 2.69196 1.45083 2.78006 1.41726 2.78845 1.41726C 2.85978 1.39629 2.9311 1.36692 3.00242 1.34594C 3.06535 1.32916 3.12828 1.31238 3.19541 1.2956C 3.22897 1.28721 3.46811 1.25364 3.33805 1.26623C 3.48489 1.24945 3.62754 1.24525 3.77438 1.24945C 3.8415 1.24945 3.90863 1.25784 3.97995 1.26203C 4.10582 1.27042 4.00932 1.26623 3.98415 1.26203C 4.0303 1.27042 4.07645 1.27881 4.1226 1.28721C 4.29042 1.32077 4.44984 1.37111 4.60927 1.42565C 4.6764 1.45083 4.59668 1.41726 4.58829 1.41307C 4.63864 1.43405 4.68898 1.45922 4.73933 1.48439C 4.80645 1.51795 4.86939 1.55152 4.93232 1.58928C 5.00364 1.63123 5.07077 1.67738 5.13789 1.72353C 5.15048 1.73192 5.24278 1.80324 5.18404 1.75709C 5.12111 1.71094 5.25117 1.81163 5.24697 1.81163C 5.36445 1.91232 5.46933 2.0256 5.57422 2.14307C 5.5868 2.15566 5.65813 2.24376 5.61198 2.18503C 5.56583 2.12629 5.66232 2.25635 5.66232 2.25215C 5.70428 2.31089 5.74204 2.37382 5.77979 2.43675C 5.82175 2.50808 5.85951 2.5794 5.89727 2.65492C 5.91405 2.68848 5.93083 2.72204 5.94342 2.75561C 5.97278 2.82273 5.91824 2.6717 5.95181 2.78497C 6.00215 2.9486 6.05669 3.10383 6.08606 3.27164C 6.09026 3.30101 6.09445 3.32618 6.09865 3.35555C 6.11123 3.42687 6.09445 3.26745 6.10284 3.38912C 6.11543 3.4982 6.11962 3.59469 6.11962 3.69538C 6.12382 4.02263 6.40491 4.34148 6.74894 4.3247C 7.08877 4.30791 7.38245 4.0478 7.37825 3.69538C 7.36147 2.12629 6.37974 0.754386 4.91553 0.213175C 3.50168 -0.311253 1.80253 0.158635 0.85436 1.32916C -0.127371 2.53325 -0.295188 4.25757 0.518725 5.60011C 1.33264 6.93845 2.89753 7.60552 4.42887 7.31184C 6.13641 6.9846 7.36567 5.40712 7.37825 3.69538C 7.38245 3.36814 7.08457 3.04929 6.74894 3.06607C 6.40911 3.07865 6.12382 3.33877 6.11962 3.69538Z"/>
<path id="path1_fill" d="M 9.5641 2.66596C 9.92491 4.03367 10.2857 5.40138 10.6465 6.76909C 11.0577 8.33399 11.4898 9.89469 11.8842 11.4596C 11.8884 11.4764 11.8926 11.4973 11.8968 11.5141C 11.901 11.5267 11.901 11.5351 11.9052 11.5477C 11.9261 11.6484 11.9093 11.4092 11.9052 11.5812C 11.9052 11.6358 11.901 11.6945 11.901 11.7491C 11.9052 11.6316 11.9093 11.7155 11.8968 11.7449C 11.88 11.8078 11.8632 11.8707 11.8422 11.9295C 11.8087 12.026 11.9135 11.8078 11.8296 11.9588C 11.8003 12.0092 11.7751 12.0595 11.7457 12.1057C 11.7247 12.1392 11.7038 12.1686 11.6828 12.198C 11.7583 12.0973 11.6534 12.2273 11.6366 12.2483C 11.5989 12.2903 11.5569 12.3322 11.5108 12.37C 11.4898 12.3868 11.3597 12.4833 11.4562 12.4161C 11.3765 12.4707 11.2926 12.5252 11.2087 12.5714C 11.1961 12.5756 11.0241 12.6553 11.1458 12.6049C 11.0912 12.6259 11.0367 12.6469 10.9822 12.6595C 10.9444 12.6721 10.9066 12.6805 10.8689 12.6888C 10.8269 12.6972 10.6969 12.714 10.8101 12.7056C 10.743 12.7098 10.6801 12.714 10.613 12.714C 10.399 12.714 10.185 12.714 9.96686 12.714C 9.71514 12.714 9.40468 12.907 9.35853 13.1755C 9.18232 14.2831 9.00191 15.3907 8.82571 16.4983C 8.70404 17.2577 8.58237 18.017 8.4607 18.7806C 8.39777 19.1666 8.30967 19.5568 8.27611 19.9511C 8.27191 19.9889 8.2761 20.0266 8.27191 20.0686C 8.2761 20.035 8.30128 19.9637 8.26771 20.0686C 8.25513 20.1022 8.24674 20.1399 8.23835 20.1777C 8.23415 20.1861 8.20059 20.27 8.22995 20.2071C 8.25513 20.1525 8.17122 20.2994 8.15863 20.3245C 8.0957 20.4252 8.13766 20.3455 8.15863 20.3287C 8.12926 20.3623 8.0957 20.3958 8.06214 20.4252C 8.01179 20.4756 8.07472 20.421 8.08311 20.4126C 8.05375 20.4336 8.02438 20.4546 7.99081 20.4756C 7.96145 20.4965 7.92788 20.5133 7.89432 20.5301C 7.90271 20.5259 7.98662 20.4965 7.9153 20.5217C 7.85237 20.5427 7.78943 20.5595 7.7265 20.5721C 7.84817 20.5469 7.69714 20.5721 7.66357 20.5721C 7.40765 20.5763 7.14753 20.5721 6.88742 20.5721C 6.50144 20.5721 6.11546 20.5721 5.72948 20.5721C 5.64977 20.5721 5.57425 20.5721 5.49454 20.5721C 5.47775 20.5721 5.32252 20.5595 5.40643 20.5721C 5.46097 20.5804 5.30574 20.5427 5.27218 20.5343C 5.24281 20.5259 5.17149 20.484 5.26798 20.5343C 5.24281 20.5217 5.21764 20.5091 5.19666 20.4965C 5.16729 20.4756 5.13373 20.4588 5.10436 20.4378C 5.03723 20.3916 5.18407 20.5301 5.08338 20.4168C 5.0666 20.3958 5.04562 20.3749 5.02465 20.3581C 4.95752 20.2952 5.07499 20.4336 5.02045 20.3581C 4.98269 20.3035 4.95333 20.249 4.92396 20.1945C 4.98269 20.3035 4.90298 20.1189 4.89459 20.0854C 4.89039 20.077 4.87361 19.9847 4.8862 20.056C 4.89879 20.1399 4.8862 19.9847 4.8862 19.9679C 4.87781 19.8882 4.86522 19.8127 4.85263 19.7372C 4.82746 19.5652 4.79809 19.3889 4.76873 19.2169C 4.65545 18.5247 4.54637 17.8282 4.43309 17.136C 4.30303 16.3347 4.17717 15.5333 4.04711 14.7278C 3.9674 14.2412 3.90866 13.7503 3.81217 13.272C 3.80797 13.2468 3.80378 13.2217 3.79958 13.1965C 3.75763 12.928 3.44717 12.735 3.19125 12.735C 3.04441 12.735 2.90176 12.735 2.75492 12.735C 2.6836 12.735 2.61228 12.735 2.53676 12.735C 2.51159 12.735 2.48641 12.735 2.46124 12.735C 2.42348 12.735 2.38992 12.7308 2.35216 12.7266C 2.44446 12.7308 2.38572 12.735 2.32699 12.7224C 2.26406 12.7098 2.20112 12.693 2.13819 12.6763C 2.10043 12.6637 2.06687 12.6511 2.03331 12.6427C 2.02492 12.6385 1.94101 12.6049 2.00394 12.6343C 2.07526 12.6637 1.96618 12.6175 1.9494 12.6091C 1.91583 12.5923 1.88227 12.5756 1.84871 12.5546C 1.78158 12.5168 1.72284 12.4749 1.65991 12.4329C 1.5802 12.3784 1.72704 12.4917 1.65572 12.4287C 1.63474 12.4119 1.61376 12.391 1.59279 12.3742C 1.53825 12.3238 1.4879 12.2693 1.43756 12.2148C 1.43336 12.2064 1.37882 12.135 1.42077 12.1938C 1.46692 12.2567 1.3998 12.1602 1.39141 12.1476C 1.37882 12.1225 1.36204 12.1015 1.34945 12.0763C 1.34945 12.0763 1.27813 11.9295 1.31169 12.005C 1.34526 12.0763 1.29911 11.9714 1.29491 11.9546C 1.28652 11.9211 1.27393 11.8833 1.26554 11.8498C 1.25715 11.8246 1.25296 11.7952 1.24876 11.77C 1.27813 11.8833 1.25296 11.8078 1.25296 11.7742C 1.25296 11.7071 1.25296 11.6442 1.25715 11.5771C 1.26135 11.5099 1.23198 11.6526 1.26554 11.5393C 1.27393 11.5183 1.27813 11.4931 1.28232 11.4722C 1.32008 11.3295 1.35784 11.1911 1.3956 11.0484C 1.75641 9.67652 2.12141 8.30462 2.48222 6.93271C 2.82624 5.62794 3.17027 4.32735 3.51429 3.02257C 3.54366 2.91349 3.57303 2.80861 3.5982 2.69953C 3.63596 2.56108 3.67372 2.42263 3.71987 2.28418C 3.73245 2.24642 3.74504 2.21286 3.76182 2.1751C 3.75763 2.18349 3.72406 2.25901 3.75343 2.19188C 3.7828 2.12475 3.81636 2.05343 3.85412 1.9863C 3.88349 1.92757 3.91705 1.87303 3.95062 1.81849C 3.97579 1.78073 4.08907 1.63389 4.00935 1.72619C 4.0555 1.67165 4.10165 1.6213 4.152 1.57096C 4.17298 1.54998 4.29884 1.4409 4.2443 1.48285C 4.19395 1.52061 4.31982 1.43251 4.34918 1.41572C 4.37855 1.39894 4.41212 1.38216 4.44148 1.36538C 4.53798 1.30664 4.39114 1.36957 4.45826 1.35699C 4.517 1.3444 4.57574 1.31923 4.63447 1.30245C 4.66804 1.29406 4.7058 1.28986 4.73936 1.28147C 4.72677 1.28567 4.63867 1.28567 4.70999 1.28567C 4.76453 1.28567 4.81907 1.28147 4.87361 1.28147C 5.10016 1.27728 5.32672 1.28147 5.55747 1.28147C 6.32523 1.28147 7.09719 1.28147 7.86495 1.28147C 8.05375 1.28147 8.25093 1.29406 8.43973 1.28567C 8.53622 1.28147 8.34743 1.26049 8.43553 1.28147C 8.4607 1.28986 8.49007 1.28986 8.51524 1.29825C 8.58237 1.31503 8.6495 1.33601 8.71663 1.35699C 8.75438 1.36957 8.80473 1.41153 8.70823 1.35279C 8.72921 1.36538 8.75438 1.37377 8.77536 1.38636C 8.84249 1.42412 8.90542 1.46187 8.96416 1.50802C 8.86346 1.4409 8.97255 1.52061 9.01031 1.55417C 9.05226 1.59613 9.09421 1.64228 9.13197 1.68423C 9.14875 1.70521 9.20329 1.77653 9.13197 1.68004C 9.15295 1.7094 9.17393 1.73877 9.19071 1.76814C 9.23266 1.82688 9.26623 1.88981 9.30399 1.95274C 9.33335 2.01148 9.36272 2.07021 9.39209 2.12895C 9.43404 2.21705 9.35853 2.04504 9.39628 2.13734C 9.40467 2.16671 9.41726 2.19188 9.42565 2.22125C 9.48439 2.3555 9.52634 2.51073 9.5641 2.66596C 9.63962 2.9974 10.0214 3.19459 10.3403 3.10648C 10.6801 3.01418 10.8563 2.66596 10.7808 2.33033C 10.6381 1.69682 10.3528 1.03394 9.85778 0.59342C 9.41306 0.203245 8.87605 0.0102555 8.28869 0.00186464C 7.61323 -0.00233079 6.93776 0.00186464 6.2623 0.00186464C 5.8931 0.00186464 5.5281 0.00186464 5.1589 0.00186464C 4.84005 0.00186464 4.5212 0.00186413 4.21073 0.098359C 3.16607 0.421407 2.64164 1.40733 2.38153 2.39745C 2.07106 3.58896 1.75221 4.78046 1.43756 5.97196C 1.03899 7.48651 0.636228 8.99687 0.237662 10.5114C 0.132776 10.91 -0.0224536 11.3379 0.00271898 11.7533C 0.0446733 12.5084 0.485193 13.1419 1.10612 13.5489C 1.59698 13.8678 2.15497 13.9768 2.72975 13.9768C 2.88917 13.9768 3.0444 13.9768 3.20383 13.9768C 3.00245 13.8216 2.80107 13.6706 2.59549 13.5153C 2.78009 14.6775 2.96889 15.8396 3.15349 17.0017C 3.27515 17.7653 3.39682 18.5289 3.52268 19.2924C 3.56044 19.5148 3.59401 19.7372 3.63177 19.9595C 3.64016 20.0057 3.64855 20.056 3.65274 20.1022C 3.66113 20.1735 3.64016 19.9092 3.63596 20.0644C 3.63596 20.2448 3.6905 20.442 3.75763 20.6098C 4.04711 21.3356 4.72258 21.8055 5.50293 21.8181C 5.76304 21.8223 6.02316 21.8181 6.27908 21.8181C 6.66926 21.8181 7.05943 21.8181 7.4538 21.8181C 7.89432 21.8181 8.32645 21.7636 8.70404 21.5076C 9.03548 21.2811 9.27462 20.979 9.42146 20.6098C 9.48858 20.442 9.51795 20.2742 9.53893 20.0896C 9.55991 19.8882 9.52215 20.1441 9.52634 20.098C 9.54313 19.9553 9.57249 19.8127 9.59347 19.67C 9.70255 18.9904 9.81163 18.3107 9.92071 17.6311C 10.1347 16.2843 10.3948 14.9418 10.571 13.5909C 10.5752 13.5657 10.5794 13.5363 10.5836 13.5111C 10.3822 13.6664 10.1808 13.8174 9.97526 13.9726C 10.592 13.9726 11.171 13.9768 11.7457 13.7083C 12.5471 13.3349 13.2057 12.4917 13.168 11.5771C 13.147 11.04 12.933 10.4904 12.7988 9.9744C 12.2702 7.98157 11.7457 5.98455 11.2171 3.99172C 11.0703 3.43792 10.9234 2.87993 10.7766 2.32613C 10.6885 1.99889 10.3277 1.79751 10.0004 1.88561C 9.66899 1.98211 9.476 2.33872 9.5641 2.66596Z"/>
<path id="path2_fill" d="M 6.11962 3.69538C 6.11962 3.7751 6.11543 3.85061 6.11123 3.93033C 6.10704 3.96809 6.10284 4.00584 6.09865 4.0436C 6.09865 4.03521 6.11543 3.94291 6.10284 4.01843C 6.07767 4.17786 6.03991 4.33309 5.98956 4.48412C 5.98117 4.51349 5.92244 4.67292 5.94342 4.61838C 5.96439 4.56384 5.89727 4.71907 5.88468 4.74424C 5.81336 4.88269 5.73364 5.01694 5.64554 5.147C 5.62876 5.16798 5.61198 5.19315 5.59519 5.21413C 5.66652 5.12183 5.60778 5.19735 5.591 5.21413C 5.54065 5.26867 5.4945 5.32321 5.44416 5.37775C 5.39801 5.4239 5.35606 5.47005 5.30571 5.512C 5.28054 5.53298 5.10013 5.67982 5.20082 5.6043C 5.09174 5.68821 4.97427 5.75953 4.8568 5.82666C 4.80226 5.85603 4.74352 5.88959 4.68479 5.91476C 4.65122 5.93155 4.61766 5.94833 4.5841 5.96091C 4.668 5.92735 4.60088 5.95252 4.55473 5.96931C 4.42047 6.01545 4.28622 6.05741 4.14777 6.08258C 4.10582 6.09097 3.90863 6.12034 4.0345 6.10356C 3.95898 6.11195 3.87926 6.11615 3.80375 6.12034C 3.65691 6.12454 3.51007 6.12034 3.36742 6.10775C 3.26673 6.09936 3.46392 6.12454 3.36323 6.10775C 3.32547 6.09936 3.28771 6.09517 3.24995 6.08678C 3.16604 6.06999 3.08633 6.04902 3.00242 6.02804C 2.93949 6.01126 2.87656 5.98609 2.81782 5.96931C 2.79265 5.96091 2.76748 5.94833 2.73811 5.93994C 2.84719 5.98189 2.75908 5.94833 2.73391 5.93994C 2.59966 5.87701 2.4696 5.80988 2.34793 5.73017C 2.285 5.69241 2.22627 5.65045 2.16753 5.6043C 2.26822 5.67982 2.1046 5.54976 2.08362 5.52878C 1.97454 5.43229 1.87804 5.32321 1.78155 5.21413C 1.76477 5.19735 1.71023 5.12183 1.77735 5.21413C 1.76057 5.19315 1.74379 5.17217 1.72701 5.147C 1.68505 5.08826 1.6431 5.02533 1.60534 4.9624C 1.57178 4.90786 1.54241 4.85332 1.50885 4.79458C 1.49207 4.76102 1.47528 4.72746 1.4585 4.69389C 1.45011 4.68131 1.39137 4.54286 1.42494 4.61838C 1.44592 4.67292 1.38718 4.51349 1.37879 4.48412C 1.35362 4.4128 1.33264 4.34148 1.31586 4.26596C 1.29908 4.19044 1.28229 4.11912 1.26971 4.0436C 1.26971 4.03521 1.25712 3.94291 1.26551 4.01424C 1.2781 4.09814 1.26132 3.94291 1.25712 3.92613C 1.24453 3.77929 1.24453 3.63245 1.25712 3.48561C 1.26132 3.44785 1.28229 3.27584 1.26132 3.39331C 1.2739 3.3094 1.29068 3.22549 1.31166 3.14159C 1.34522 3.00314 1.38718 2.87308 1.43752 2.73882C 1.39137 2.86049 1.47528 2.66331 1.48787 2.63394C 1.52143 2.56681 1.555 2.50388 1.59276 2.44095C 1.63051 2.37802 1.66827 2.31509 1.71023 2.25635C 1.7312 2.22698 1.75218 2.19761 1.77316 2.16825C 1.75638 2.18922 1.69764 2.25635 1.77735 2.16825C 1.87385 2.05916 1.97034 1.95008 2.07942 1.85359C 2.1046 1.82842 2.13397 1.80744 2.16333 1.78227C 2.16753 1.77807 2.23885 1.71933 2.18431 1.76129C 2.12557 1.80744 2.21787 1.74031 2.23046 1.72773C 2.25983 1.70675 2.2892 1.68577 2.32276 1.66479C 2.44443 1.58508 2.57449 1.51376 2.70874 1.45083C 2.72552 1.44244 2.83041 1.40048 2.75908 1.42565C 2.69196 1.45083 2.78006 1.41726 2.78845 1.41726C 2.85978 1.39629 2.9311 1.36692 3.00242 1.34594C 3.06535 1.32916 3.12828 1.31238 3.19541 1.2956C 3.22897 1.28721 3.46811 1.25364 3.33805 1.26623C 3.48489 1.24945 3.62754 1.24525 3.77438 1.24945C 3.84151 1.24945 3.90863 1.25784 3.97995 1.26203C 4.10582 1.27042 4.00932 1.26623 3.98415 1.26203C 4.0303 1.27042 4.07645 1.27881 4.1226 1.28721C 4.29042 1.32077 4.44984 1.37111 4.60927 1.42565C 4.6764 1.45083 4.59668 1.41726 4.58829 1.41307C 4.63864 1.43405 4.68898 1.45922 4.73933 1.48439C 4.80645 1.51795 4.86939 1.55152 4.93232 1.58928C 5.00364 1.63123 5.07077 1.67738 5.13789 1.72353C 5.15048 1.73192 5.24278 1.80324 5.18404 1.75709C 5.12111 1.71094 5.25117 1.81163 5.24697 1.81163C 5.36445 1.91232 5.46933 2.0256 5.57422 2.14307C 5.5868 2.15566 5.65813 2.24376 5.61198 2.18503C 5.56583 2.12629 5.66232 2.25635 5.66232 2.25215C 5.70428 2.31089 5.74203 2.37382 5.77979 2.43675C 5.82175 2.50808 5.85951 2.5794 5.89727 2.65492C 5.91405 2.68848 5.93083 2.72204 5.94342 2.75561C 5.97278 2.82273 5.91824 2.6717 5.95181 2.78497C 6.00215 2.9486 6.05669 3.10383 6.08606 3.27164C 6.09026 3.30101 6.09445 3.32618 6.09865 3.35555C 6.11123 3.42687 6.09445 3.26745 6.10284 3.38912C 6.11123 3.4982 6.11962 3.59469 6.11962 3.69538C 6.12382 4.02263 6.40491 4.34148 6.74894 4.3247C 7.08877 4.30791 7.38245 4.0478 7.37825 3.69538C 7.36147 2.12629 6.37974 0.754386 4.91554 0.213175C 3.50168 -0.311253 1.80253 0.158635 0.85436 1.32916C -0.127371 2.53325 -0.295188 4.25757 0.518725 5.60011C 1.33264 6.93845 2.89753 7.60552 4.42887 7.31184C 6.13641 6.9846 7.36567 5.40712 7.37825 3.69538C 7.38245 3.36814 7.08457 3.04929 6.74894 3.06607C 6.40491 3.07865 6.12382 3.33877 6.11962 3.69538Z"/>
<path id="path3_fill" d="M 9.14022 2.66363C 9.45487 3.84674 9.77373 5.02985 10.0884 6.21296C 10.4114 7.42125 10.7471 8.62953 11.0575 9.84201C 11.0743 9.90075 11.0659 9.91333 11.0617 9.84621C 11.0617 9.88397 11.0659 9.92172 11.0659 9.95948C 11.0659 9.98466 11.0407 10.1525 11.0701 10.014C 11.0533 10.0979 11.0324 10.1735 11.0072 10.2532C 10.9778 10.3455 11.0491 10.1693 11.0072 10.2574C 10.9862 10.2993 10.9652 10.3413 10.9401 10.379C 10.9191 10.4126 10.8981 10.442 10.8813 10.4755C 10.7974 10.6098 10.9526 10.4126 10.8394 10.5259C 10.7764 10.5888 10.7219 10.6517 10.6548 10.7105C 10.6422 10.7189 10.5499 10.7944 10.6044 10.7524C 10.6632 10.7105 10.5373 10.7944 10.5247 10.8028C 10.4492 10.8489 10.3737 10.8909 10.294 10.9286C 10.2059 10.9748 10.3779 10.8993 10.2814 10.9328C 10.2352 10.9496 10.1891 10.9664 10.1429 10.979C 10.1052 10.9916 10.0674 10.9999 10.0296 11.0083C 10.0129 11.0125 9.83246 11.0377 9.97091 11.0251C 9.88281 11.0335 9.79051 11.0335 9.7024 11.0335C 9.50941 11.0335 9.32062 11.0335 9.12763 11.0335C 8.8801 11.0335 8.55705 11.2265 8.51929 11.495C 8.39343 12.376 8.26757 13.2571 8.1417 14.1423C 8.07038 14.6542 7.99486 15.1618 7.92354 15.6737C 7.90676 15.7827 7.89417 15.8876 7.87739 15.9967C 7.869 16.0554 7.86061 16.11 7.85222 16.1729C 7.85222 16.1939 7.82285 16.3743 7.85222 16.2358C 7.84383 16.282 7.83124 16.3281 7.81866 16.3701C 7.81026 16.4037 7.75572 16.5044 7.81026 16.3995C 7.78509 16.4498 7.75572 16.496 7.72636 16.5421C 7.64664 16.6722 7.80607 16.4876 7.6886 16.5841C 7.68021 16.5925 7.54595 16.7099 7.65084 16.6302C 7.60888 16.6638 7.55854 16.689 7.51239 16.7183C 7.38653 16.8064 7.60888 16.7015 7.46204 16.7435C 7.42848 16.7519 7.39072 16.7645 7.35296 16.7729C 7.20193 16.8232 7.45785 16.7812 7.29423 16.7812C 7.23549 16.7812 7.17675 16.7812 7.11802 16.7812C 6.87049 16.7812 6.62296 16.7812 6.37543 16.7812C 5.91813 16.7812 5.46082 16.7812 5.00352 16.7812C 4.82731 16.7812 5.07065 16.8022 4.97415 16.7771C 4.928 16.7645 4.88605 16.7519 4.8399 16.7393C 4.68887 16.6973 4.91542 16.8022 4.78956 16.7141C 4.74341 16.6848 4.69306 16.6596 4.65111 16.626C 4.78116 16.7267 4.50427 16.4498 4.60915 16.5841C 4.57559 16.5421 4.55042 16.4918 4.52105 16.4456C 4.44553 16.3365 4.52944 16.5127 4.49588 16.3953C 4.47909 16.3407 4.46651 16.2862 4.45392 16.2316C 4.48329 16.3743 4.45812 16.1897 4.45392 16.1687C 4.44973 16.1058 4.43714 16.0512 4.42875 15.9925C 4.42455 15.9548 4.41616 15.917 4.41197 15.8792C 4.34904 15.4471 4.2903 15.015 4.22737 14.5786C 4.08053 13.5508 3.93369 12.5229 3.79104 11.4908C 3.75328 11.2223 3.43443 11.0293 3.18271 11.0293C 2.91839 11.0293 2.6331 10.9958 2.37299 11.0251C 2.30586 11.0335 2.38557 11.0293 2.40236 11.0335C 2.37299 11.0293 2.34782 11.0251 2.31845 11.0209C 2.25552 11.0083 2.19258 10.9916 2.12965 10.9748C 2.07511 10.958 2.02477 10.9412 1.97023 10.9202C 2.0835 10.9622 1.8989 10.8825 1.86534 10.8657C 1.815 10.8405 1.76885 10.8112 1.7185 10.7776C 1.68913 10.7566 1.65557 10.7356 1.6262 10.7147C 1.63459 10.7231 1.69752 10.7734 1.64298 10.7272C 1.59264 10.6853 1.54649 10.6433 1.50034 10.593C 1.47936 10.572 1.46258 10.551 1.4458 10.5343C 1.43741 10.5259 1.36609 10.4378 1.40804 10.4923C 1.44999 10.551 1.39545 10.4755 1.39545 10.4671C 1.37867 10.4378 1.35769 10.4042 1.34091 10.3748C 1.31994 10.3371 1.27379 10.228 1.31154 10.3287C 1.28637 10.2699 1.27379 10.207 1.257 10.1483C 1.24861 10.1231 1.24442 10.0937 1.24022 10.0686C 1.25281 10.1273 1.24442 10.1399 1.24442 10.0728C 1.24442 10.0056 1.24442 9.9427 1.24861 9.87558C 1.25281 9.81684 1.22764 9.95109 1.257 9.83782C 1.257 9.83362 1.2612 9.82523 1.2612 9.82103C 1.29057 9.71615 1.31994 9.60707 1.34511 9.49799C 1.67235 8.26873 2.00379 7.03527 2.33103 5.80601C 2.60793 4.77393 2.88483 3.74186 3.15753 2.70978C 3.16592 2.67202 3.17431 2.63846 3.1869 2.6007C 3.22046 2.47484 3.25822 2.35317 3.30018 2.2315C 3.30857 2.20213 3.32116 2.17696 3.32955 2.14759C 3.32535 2.15598 3.29179 2.2315 3.32116 2.16438C 3.35052 2.09725 3.38409 2.02593 3.42185 1.9588C 3.47639 1.85391 3.53932 1.75322 3.61064 1.65673C 3.54351 1.74903 3.63581 1.62736 3.66518 1.59799C 3.70713 1.55184 3.75328 1.51408 3.79524 1.47213C 3.81622 1.45115 3.88754 1.40081 3.78685 1.47213C 3.80782 1.45535 3.8288 1.44276 3.84978 1.43018C 3.89173 1.405 3.93788 1.37564 3.98403 1.35046C 4.00081 1.34207 4.10151 1.29592 4.02599 1.32529C 3.95886 1.35466 4.03857 1.32109 4.04696 1.3169C 4.11409 1.29592 4.18541 1.27914 4.25254 1.26236C 4.36582 1.23299 4.18541 1.25816 4.30708 1.25397C 4.34484 1.25397 4.38679 1.24977 4.42455 1.24977C 4.44133 1.24977 4.45392 1.24977 4.4707 1.24977C 4.55042 1.24977 4.63013 1.24977 4.70984 1.24977C 5.01611 1.24977 5.32237 1.24977 5.62864 1.24977C 6.29152 1.24977 6.95859 1.24977 7.62147 1.24977C 7.69279 1.24977 7.76411 1.24977 7.83544 1.24977C 7.84383 1.24977 7.85222 1.24977 7.86481 1.24977C 7.89417 1.24977 8.07458 1.25816 8.00745 1.25397C 7.94452 1.24977 8.10394 1.27494 8.13331 1.27914C 8.19205 1.29592 8.24659 1.32109 8.30533 1.33368C 8.37245 1.35046 8.28015 1.32529 8.27176 1.32109C 8.29274 1.33368 8.31791 1.34207 8.33889 1.35466C 8.38923 1.38402 8.43958 1.41339 8.48992 1.44696C 8.49831 1.45535 8.56544 1.50569 8.50671 1.45954C 8.43958 1.405 8.55705 1.50569 8.55705 1.50989C 8.59481 1.54345 8.62837 1.58121 8.66613 1.61897C 8.68291 1.63995 8.6997 1.65673 8.71648 1.67771C 8.77941 1.74903 8.66194 1.59799 8.71228 1.67351C 8.7836 1.7784 8.85073 1.88328 8.90527 2.00075C 8.91786 2.02593 8.97659 2.15598 8.95562 2.10564C 8.92625 2.03432 8.9724 2.14759 8.97659 2.16438C 8.98499 2.19374 8.99757 2.21892 9.00596 2.24828C 9.07309 2.39093 9.11085 2.52518 9.14022 2.66363C 9.21573 2.99507 9.59752 3.19226 9.91637 3.10415C 10.2562 3.01185 10.4324 2.66363 10.3569 2.328C 10.2226 1.73225 9.96672 1.14489 9.54298 0.700171C 9.10665 0.247065 8.5109 0.0121204 7.88578 0.00372953C 7.36974 -0.00466133 6.84951 0.00372953 6.33347 0.00372953C 5.72094 0.00372953 5.10841 -0.000465903 4.49168 0.00372953C 4.03438 0.00372953 3.57288 0.117006 3.19529 0.381318C 2.66247 0.754711 2.32264 1.30012 2.10448 1.90426C 1.97442 2.26087 1.89471 2.64265 1.79402 3.00766C 1.62201 3.64536 1.45419 4.28307 1.28218 4.92077C 0.917174 6.29268 0.547976 7.66039 0.182974 9.03229C 0.0403294 9.56092 -0.0981197 10.0728 0.09487 10.6224C 0.300446 11.2181 0.753552 11.7216 1.31994 11.9985C 1.78982 12.2292 2.26391 12.3005 2.77994 12.3005C 2.91839 12.3005 3.05684 12.3005 3.19529 12.3005C 2.99391 12.1453 2.79253 11.9943 2.58696 11.839C 2.72121 12.7746 2.85127 13.7102 2.98552 14.6458C 3.05684 15.145 3.12817 15.6401 3.19949 16.1393C 3.20788 16.1897 3.21627 16.2442 3.22046 16.2946C 3.22046 16.3072 3.22466 16.3239 3.22466 16.3365C 3.22466 16.3407 3.22466 16.3407 3.22466 16.3449C 3.20368 16.2149 3.19949 16.1981 3.20788 16.2946C 3.21627 16.3701 3.22466 16.4456 3.23725 16.5169C 3.32535 17.0414 3.66518 17.5071 4.11409 17.784C 4.6595 18.1154 5.3014 18.0483 5.90974 18.0483C 6.3964 18.0483 6.90405 18.086 7.39072 18.0399C 7.98228 17.9811 8.48992 17.6791 8.82136 17.184C 8.95142 16.9868 9.04372 16.7519 9.08148 16.5169C 9.06889 16.5841 9.11924 16.2358 9.11504 16.2358C 8.88429 16.2694 9.09407 16.3827 9.09407 16.3407C 9.09407 16.3281 9.09826 16.3114 9.09826 16.2946C 9.14861 15.8876 9.21573 15.4807 9.27027 15.0737C 9.4255 13.9955 9.57654 12.9131 9.73177 11.8348C 9.53039 11.9901 9.32901 12.1411 9.12343 12.2963C 9.56395 12.2963 10.0171 12.3257 10.445 12.204C 11.2211 11.9859 11.8882 11.4195 12.1819 10.6643C 12.4378 10.0182 12.2448 9.42666 12.077 8.80154C 11.6323 7.13176 11.1834 5.46618 10.7387 3.7964C 10.6086 3.30553 10.4744 2.81467 10.3443 2.3238C 10.2562 1.99656 9.89539 1.79518 9.56815 1.88328C 9.2493 1.97978 9.05211 2.33639 9.14022 2.66363Z"/>
<path id="path4_fill" d="M 6.11962 3.69538C 6.11962 3.7751 6.11543 3.85061 6.11123 3.93033C 6.10704 3.96809 6.10284 4.00584 6.09865 4.0436C 6.09865 4.03521 6.11543 3.94291 6.10284 4.01843C 6.07767 4.17786 6.03991 4.33309 5.98956 4.48412C 5.98117 4.51349 5.92244 4.67292 5.94342 4.61838C 5.96439 4.56384 5.89727 4.71907 5.88468 4.74424C 5.81336 4.88269 5.73364 5.01694 5.64554 5.147C 5.62876 5.16798 5.61198 5.19315 5.59519 5.21413C 5.66652 5.12183 5.60778 5.19735 5.591 5.21413C 5.54065 5.26867 5.4945 5.32321 5.44416 5.37775C 5.39801 5.4239 5.35606 5.47005 5.30571 5.512C 5.28054 5.53298 5.10013 5.67982 5.20082 5.6043C 5.09174 5.68821 4.97427 5.75953 4.8568 5.82666C 4.80226 5.85603 4.74352 5.88959 4.68479 5.91476C 4.65122 5.93155 4.61766 5.94833 4.5841 5.96091C 4.668 5.92735 4.60088 5.95252 4.55473 5.96931C 4.42047 6.01545 4.28622 6.05741 4.14777 6.08258C 4.10582 6.09097 3.90863 6.12034 4.0345 6.10356C 3.95898 6.11195 3.87927 6.11615 3.80375 6.12034C 3.65691 6.12454 3.51007 6.12034 3.36742 6.10775C 3.26673 6.09936 3.46392 6.12454 3.36323 6.10775C 3.32547 6.09936 3.28771 6.09517 3.24995 6.08678C 3.16604 6.06999 3.08633 6.04902 3.00242 6.02804C 2.93949 6.01126 2.87656 5.98609 2.81782 5.96931C 2.79265 5.96091 2.76748 5.94833 2.73811 5.93994C 2.84719 5.98189 2.75909 5.94833 2.73391 5.93994C 2.59966 5.87701 2.4696 5.80988 2.34793 5.73017C 2.285 5.69241 2.22627 5.65045 2.16753 5.6043C 2.26822 5.67982 2.1046 5.54976 2.08362 5.52878C 1.97454 5.43229 1.87804 5.32321 1.78155 5.21413C 1.76477 5.19735 1.71023 5.12183 1.77735 5.21413C 1.76057 5.19315 1.74379 5.17217 1.72701 5.147C 1.68506 5.08826 1.6431 5.02533 1.60534 4.9624C 1.57178 4.90786 1.54241 4.85332 1.50885 4.79458C 1.49207 4.76102 1.47528 4.72746 1.4585 4.69389C 1.45011 4.68131 1.39138 4.54286 1.42494 4.61838C 1.44592 4.67292 1.38718 4.51349 1.37879 4.48412C 1.35361 4.4128 1.33264 4.34148 1.31586 4.26596C 1.29907 4.19044 1.28229 4.11912 1.26971 4.0436C 1.26971 4.03521 1.25712 3.94291 1.26551 4.01424C 1.2781 4.09814 1.26132 3.94291 1.25712 3.92613C 1.24454 3.77929 1.24454 3.63245 1.25712 3.48561C 1.26132 3.44785 1.28229 3.27584 1.26132 3.39331C 1.2739 3.3094 1.29068 3.22549 1.31166 3.14159C 1.34522 3.00314 1.38718 2.87308 1.43752 2.73882C 1.39137 2.86049 1.47528 2.66331 1.48787 2.63394C 1.52143 2.56681 1.555 2.50388 1.59276 2.44095C 1.63051 2.37802 1.66827 2.31509 1.71023 2.25635C 1.7312 2.22698 1.75218 2.19761 1.77316 2.16825C 1.75638 2.18922 1.69764 2.25635 1.77735 2.16825C 1.87385 2.05916 1.97034 1.95008 2.07942 1.85359C 2.1046 1.82842 2.13397 1.80744 2.16333 1.78227C 2.16753 1.77807 2.23885 1.71933 2.18431 1.76129C 2.12557 1.80744 2.21788 1.74031 2.23046 1.72773C 2.25983 1.70675 2.2892 1.68577 2.32276 1.66479C 2.44443 1.58508 2.57449 1.51376 2.70874 1.45083C 2.72552 1.44244 2.83041 1.40048 2.75908 1.42565C 2.69196 1.45083 2.78006 1.41726 2.78845 1.41726C 2.85978 1.39629 2.9311 1.36692 3.00242 1.34594C 3.06535 1.32916 3.12828 1.31238 3.19541 1.2956C 3.22897 1.28721 3.46811 1.25364 3.33805 1.26623C 3.48489 1.24945 3.62754 1.24525 3.77438 1.24945C 3.84151 1.24945 3.90863 1.25784 3.97995 1.26203C 4.10582 1.27042 4.00932 1.26623 3.98415 1.26203C 4.0303 1.27042 4.07645 1.27881 4.1226 1.28721C 4.29042 1.32077 4.44984 1.37111 4.60927 1.42565C 4.67639 1.45083 4.59668 1.41726 4.58829 1.41307C 4.63864 1.43405 4.68898 1.45922 4.73933 1.48439C 4.80645 1.51795 4.86938 1.55152 4.93232 1.58928C 5.00364 1.63123 5.07077 1.67738 5.13789 1.72353C 5.15048 1.73192 5.24278 1.80324 5.18404 1.75709C 5.12111 1.71094 5.25117 1.81163 5.24697 1.81163C 5.36445 1.91232 5.46933 2.0256 5.57422 2.14307C 5.5868 2.15566 5.65813 2.24376 5.61198 2.18503C 5.56583 2.12629 5.66232 2.25635 5.66232 2.25215C 5.70428 2.31089 5.74203 2.37382 5.77979 2.43675C 5.82175 2.50808 5.85951 2.5794 5.89726 2.65492C 5.91405 2.68848 5.93083 2.72204 5.94342 2.75561C 5.97278 2.82273 5.91824 2.6717 5.95181 2.78497C 6.00215 2.9486 6.05669 3.10383 6.08606 3.27164C 6.09025 3.30101 6.09445 3.32618 6.09865 3.35555C 6.11123 3.42687 6.09445 3.26745 6.10284 3.38912C 6.11123 3.4982 6.11962 3.59469 6.11962 3.69538C 6.12382 4.02263 6.40491 4.34148 6.74894 4.3247C 7.08877 4.30791 7.38245 4.0478 7.37825 3.69538C 7.36147 2.12629 6.37974 0.754386 4.91554 0.213175C 3.50168 -0.311253 1.80253 0.158635 0.854359 1.32916C -0.127372 2.53325 -0.295189 4.25757 0.518724 5.60011C 1.33264 6.93845 2.89753 7.60552 4.42886 7.31184C 6.1364 6.9846 7.36566 5.40712 7.37825 3.69538C 7.38245 3.36814 7.08457 3.04929 6.74894 3.06607C 6.40491 3.07865 6.12382 3.33877 6.11962 3.69538Z"/>
<path id="path5_fill" d="M 9.14021 2.66363C 9.45487 3.84674 9.77373 5.02985 10.0884 6.21296C 10.4114 7.42125 10.7471 8.62953 11.0575 9.84201C 11.0743 9.90075 11.0659 9.91333 11.0617 9.84621C 11.0617 9.88397 11.0659 9.92172 11.0659 9.95948C 11.0659 9.98466 11.0407 10.1525 11.0701 10.014C 11.0533 10.0979 11.0324 10.1735 11.0072 10.2532C 10.9778 10.3455 11.0491 10.1693 11.0072 10.2574C 10.9862 10.2993 10.9652 10.3413 10.9401 10.379C 10.9191 10.4126 10.8981 10.442 10.8813 10.4755C 10.7974 10.6098 10.9526 10.4126 10.8394 10.5259C 10.7764 10.5888 10.7219 10.6517 10.6548 10.7105C 10.6422 10.7189 10.5499 10.7944 10.6044 10.7524C 10.6632 10.7105 10.5373 10.7944 10.5247 10.8028C 10.4492 10.8489 10.3737 10.8909 10.294 10.9286C 10.2059 10.9748 10.3779 10.8993 10.2814 10.9328C 10.2352 10.9496 10.1891 10.9664 10.1429 10.979C 10.1052 10.9916 10.0674 10.9999 10.0296 11.0083C 10.0129 11.0125 9.83246 11.0377 9.97091 11.0251C 9.88281 11.0335 9.79051 11.0335 9.7024 11.0335C 9.50941 11.0335 9.32062 11.0335 9.12763 11.0335C 8.8801 11.0335 8.55705 11.2265 8.51929 11.495C 8.39343 12.376 8.26757 13.2571 8.1417 14.1423C 8.07038 14.6542 7.99486 15.1618 7.92354 15.6737C 7.90676 15.7827 7.89417 15.8876 7.87739 15.9967C 7.869 16.0554 7.86061 16.11 7.85222 16.1729C 7.85222 16.1939 7.82285 16.3743 7.85222 16.2358C 7.84383 16.282 7.83124 16.3281 7.81865 16.3701C 7.81026 16.4037 7.75573 16.5044 7.81027 16.3995C 7.78509 16.4498 7.75573 16.496 7.72636 16.5421C 7.64664 16.6722 7.80607 16.4876 7.6886 16.5841C 7.68021 16.5925 7.54595 16.7099 7.65084 16.6302C 7.60888 16.6638 7.55854 16.689 7.51239 16.7183C 7.38653 16.8064 7.60888 16.7015 7.46204 16.7435C 7.42848 16.7519 7.39072 16.7645 7.35296 16.7729C 7.20193 16.8232 7.45785 16.7812 7.29423 16.7812C 7.23549 16.7812 7.17676 16.7812 7.11802 16.7812C 6.87049 16.7812 6.62296 16.7812 6.37543 16.7812C 5.91813 16.7812 5.46082 16.7812 5.00352 16.7812C 4.82731 16.7812 5.07065 16.8022 4.97415 16.7771C 4.928 16.7645 4.88605 16.7519 4.8399 16.7393C 4.68886 16.6973 4.91542 16.8022 4.78956 16.7141C 4.74341 16.6848 4.69306 16.6596 4.65111 16.626C 4.78116 16.7267 4.50427 16.4498 4.60915 16.5841C 4.57559 16.5421 4.55042 16.4918 4.52105 16.4456C 4.44553 16.3365 4.52944 16.5127 4.49588 16.3953C 4.47909 16.3407 4.46651 16.2862 4.45392 16.2316C 4.48329 16.3743 4.45812 16.1897 4.45392 16.1687C 4.44973 16.1058 4.43714 16.0512 4.42875 15.9925C 4.42455 15.9548 4.41616 15.917 4.41197 15.8792C 4.34904 15.4471 4.2903 15.015 4.22737 14.5786C 4.08053 13.5508 3.93369 12.5229 3.79104 11.4908C 3.75328 11.2223 3.43443 11.0293 3.1827 11.0293C 2.91839 11.0293 2.6331 10.9958 2.37299 11.0251C 2.30586 11.0335 2.38557 11.0293 2.40236 11.0335C 2.37299 11.0293 2.34782 11.0251 2.31845 11.0209C 2.25552 11.0083 2.19258 10.9916 2.12965 10.9748C 2.07511 10.958 2.02477 10.9412 1.97023 10.9202C 2.0835 10.9622 1.89891 10.8825 1.86534 10.8657C 1.815 10.8405 1.76885 10.8112 1.7185 10.7776C 1.68913 10.7566 1.65557 10.7356 1.6262 10.7147C 1.63459 10.7231 1.69753 10.7734 1.64298 10.7272C 1.59264 10.6853 1.54649 10.6433 1.50034 10.593C 1.47936 10.572 1.46258 10.551 1.4458 10.5343C 1.43741 10.5259 1.36608 10.4378 1.40804 10.4923C 1.44999 10.551 1.39545 10.4755 1.39545 10.4671C 1.37867 10.4378 1.35769 10.4042 1.34091 10.3748C 1.31994 10.3371 1.27379 10.228 1.31154 10.3287C 1.28637 10.2699 1.27379 10.207 1.257 10.1483C 1.24861 10.1231 1.24442 10.0937 1.24022 10.0686C 1.25281 10.1273 1.24442 10.1399 1.24442 10.0728C 1.24442 10.0056 1.24442 9.9427 1.24861 9.87558C 1.25281 9.81684 1.22764 9.95109 1.257 9.83782C 1.257 9.83362 1.2612 9.82523 1.2612 9.82103C 1.29057 9.71615 1.31993 9.60707 1.34511 9.49799C 1.67235 8.26873 2.00379 7.03527 2.33103 5.80601C 2.60793 4.77393 2.88483 3.74186 3.15753 2.70978C 3.16592 2.67202 3.17432 2.63846 3.1869 2.6007C 3.22047 2.47484 3.25822 2.35317 3.30018 2.2315C 3.30857 2.20213 3.32115 2.17696 3.32955 2.14759C 3.32535 2.15598 3.29179 2.2315 3.32116 2.16438C 3.35052 2.09725 3.38409 2.02593 3.42184 1.9588C 3.47639 1.85391 3.53932 1.75322 3.61064 1.65673C 3.54351 1.74903 3.63581 1.62736 3.66518 1.59799C 3.70713 1.55184 3.75328 1.51408 3.79524 1.47213C 3.81622 1.45115 3.88754 1.40081 3.78685 1.47213C 3.80782 1.45535 3.8288 1.44276 3.84978 1.43018C 3.89173 1.405 3.93788 1.37564 3.98403 1.35046C 4.00082 1.34207 4.10151 1.29592 4.02599 1.32529C 3.95886 1.35466 4.03857 1.32109 4.04697 1.3169C 4.11409 1.29592 4.18541 1.27914 4.25254 1.26236C 4.36582 1.23299 4.18541 1.25816 4.30708 1.25397C 4.34484 1.25397 4.38679 1.24977 4.42455 1.24977C 4.44134 1.24977 4.45392 1.24977 4.4707 1.24977C 4.55042 1.24977 4.63013 1.24977 4.70984 1.24977C 5.01611 1.24977 5.32238 1.24977 5.62864 1.24977C 6.29152 1.24977 6.95859 1.24977 7.62147 1.24977C 7.69279 1.24977 7.76412 1.24977 7.83544 1.24977C 7.84383 1.24977 7.85222 1.24977 7.86481 1.24977C 7.89417 1.24977 8.07458 1.25816 8.00745 1.25397C 7.94452 1.24977 8.10394 1.27494 8.13331 1.27914C 8.19205 1.29592 8.24659 1.32109 8.30533 1.33368C 8.37245 1.35046 8.28015 1.32529 8.27176 1.32109C 8.29274 1.33368 8.31791 1.34207 8.33889 1.35466C 8.38923 1.38402 8.43958 1.41339 8.48992 1.44696C 8.49831 1.45535 8.56544 1.50569 8.50671 1.45954C 8.43958 1.405 8.55705 1.50569 8.55705 1.50989C 8.59481 1.54345 8.62837 1.58121 8.66613 1.61897C 8.68291 1.63995 8.6997 1.65673 8.71648 1.67771C 8.77941 1.74903 8.66194 1.59799 8.71228 1.67351C 8.78361 1.7784 8.85073 1.88328 8.90527 2.00075C 8.91786 2.02593 8.97659 2.15598 8.95562 2.10564C 8.92625 2.03432 8.9724 2.14759 8.97659 2.16438C 8.98499 2.19374 8.99757 2.21892 9.00596 2.24828C 9.07309 2.39093 9.11085 2.52518 9.14021 2.66363C 9.21573 2.99507 9.59752 3.19226 9.91637 3.10415C 10.2562 3.01185 10.4324 2.66363 10.3569 2.328C 10.2226 1.73225 9.96672 1.14489 9.54298 0.700171C 9.10665 0.247065 8.5109 0.0121204 7.88578 0.00372953C 7.36975 -0.00466133 6.84951 0.00372953 6.33347 0.00372953C 5.72094 0.00372953 5.10841 -0.000465903 4.49168 0.00372953C 4.03438 0.00372953 3.57288 0.117006 3.19529 0.381318C 2.66247 0.754711 2.32264 1.30012 2.10448 1.90426C 1.97442 2.26087 1.89471 2.64265 1.79402 3.00766C 1.62201 3.64536 1.45419 4.28307 1.28218 4.92077C 0.917174 6.29268 0.547975 7.66039 0.182973 9.03229C 0.0403284 9.56092 -0.0981198 10.0728 0.09487 10.6224C 0.300446 11.2181 0.753553 11.7216 1.31994 11.9985C 1.78982 12.2292 2.26391 12.3005 2.77994 12.3005C 2.91839 12.3005 3.05684 12.3005 3.19529 12.3005C 2.99391 12.1453 2.79253 11.9943 2.58696 11.839C 2.72121 12.7746 2.85127 13.7102 2.98552 14.6458C 3.05684 15.145 3.12817 15.6401 3.19949 16.1393C 3.20788 16.1897 3.21627 16.2442 3.22046 16.2946C 3.22046 16.3072 3.22466 16.3239 3.22466 16.3365C 3.22466 16.3407 3.22466 16.3407 3.22466 16.3449C 3.20368 16.2149 3.19949 16.1981 3.20788 16.2946C 3.21627 16.3701 3.22466 16.4456 3.23725 16.5169C 3.32535 17.0414 3.66518 17.5071 4.11409 17.784C 4.6595 18.1154 5.3014 18.0483 5.90973 18.0483C 6.3964 18.0483 6.90405 18.086 7.39072 18.0399C 7.98228 17.9811 8.48992 17.6791 8.82136 17.184C 8.95142 16.9868 9.04372 16.7519 9.08148 16.5169C 9.06889 16.5841 9.11924 16.2358 9.11504 16.2358C 8.88429 16.2694 9.09407 16.3827 9.09407 16.3407C 9.09407 16.3281 9.09826 16.3114 9.09826 16.2946C 9.14861 15.8876 9.21573 15.4807 9.27028 15.0737C 9.42551 13.9955 9.57654 12.9131 9.73177 11.8348C 9.53039 11.9901 9.32901 12.1411 9.12344 12.2963C 9.56396 12.2963 10.0171 12.3257 10.445 12.204C 11.2211 11.9859 11.8882 11.4195 12.1819 10.6643C 12.4378 10.0182 12.2448 9.42666 12.077 8.80154C 11.6323 7.13176 11.1834 5.46618 10.7387 3.7964C 10.6086 3.30553 10.4744 2.81467 10.3443 2.3238C 10.2562 1.99656 9.89539 1.79518 9.56815 1.88328C 9.2493 1.97978 9.05211 2.33639 9.14021 2.66363Z"/>
</defs>
</svg>
