<svg width="220" height="220" viewBox="0 0 220 220" version="1.1" xmlns="http://www.w3.org/2000/svg" xmlns:xlink="http://www.w3.org/1999/xlink">
<title>Vector</title>
<desc>Created using Figma</desc>
<g id="Canvas" transform="translate(-3537 953)">
<g id="Vector">
<use xlink:href="#path0_fill" transform="translate(3537 -953)" fill="#FF0000"/>
</g>
</g>
<defs>
<path id="path0_fill" d="M 110 0C 49.1 0 0 49.1 0 110C 0 170.9 49.2 220 110 220C 170.8 220 220 170.8 220 110C 220 49.2 170.9 0 110 0ZM 110 201.8C 59.7 201.8 18.2 160.6 18.2 110C 18.2 59.4 59.7 18.2 110 18.2C 160.3 18.2 201.8 59.6 201.8 110C 201.8 160.4 160.3 201.8 110 201.8ZM 197.1 110.1C 197.1 158.2 158.1 197.2 110 197.2C 61.9 197.2 22.9 158.2 22.9 110.1C 22.9 62 61.9 23 110 23C 158.1 23 197.1 62 197.1 110.1Z"/>
</defs>
</svg>
