<svg width="84" height="92" viewBox="0 0 84 92" version="1.1" xmlns="http://www.w3.org/2000/svg" xmlns:xlink="http://www.w3.org/1999/xlink">
<title>Vector</title>
<desc>Created using Figma</desc>
<g id="Canvas" transform="translate(-2172 2818)">
<g id="Vector">
<use xlink:href="#path0_fill" transform="translate(2172.61 -2818)"/>
</g>
</g>
<defs>
<path id="path0_fill" d="M 75.2342 18.568C 71.5492 18.75 70.3932 21.719 70.3932 25.688L 70.3932 40.334C 70.3932 41.162 69.7212 41.834 68.8932 41.834C 68.0652 41.834 67.3932 41.162 67.3932 40.334L 67.3932 12.542C 67.3932 7.334 64.6392 4.814 61.4762 4.834C 58.8902 4.85 56.0802 6.751 56.0802 10.584L 56.0802 38.333C 56.0802 39.161 55.4082 39.833 54.5802 39.833C 53.7522 39.833 53.0802 39.161 53.0802 38.333L 53.0802 7.084C 53.0802 1.834 48.8402 0 45.9802 0C 43.0202 0 38.7052 2.501 38.7052 8.001L 38.7052 38.333C 38.7052 39.161 38.0332 39.833 37.2052 39.833C 36.3772 39.833 35.7052 39.161 35.7052 38.333L 35.7052 11.084C 35.7052 8.251 33.4762 5.599 30.1812 5.599C 25.1052 5.599 22.9792 8.725 22.9792 13.801L 22.9792 47.719L 16.7902 36.987C 15.5852 34.799 13.6262 33.245 11.2722 32.602C 8.97716 31.977 6.59216 32.309 4.54716 33.532C 0.373165 36.034 -1.21684 41.69 1.00216 46.147C 1.14316 46.424 4.07416 52.436 13.2402 70.756C 17.5532 79.381 22.2872 85.553 27.3102 89.084C 31.2542 91.855 33.9772 92 34.4852 92L 57.4852 92C 61.3992 92 65.0382 90.729 68.3072 88.217C 71.3712 85.86 74.0392 82.444 76.2192 78.078C 80.5122 69.488 82.7852 57.601 82.7852 43.697L 82.7852 27.597C 82.7862 22.525 79.4792 18.359 75.2342 18.568Z"/>
</defs>
</svg>
